<svg width="65" height="19" viewBox="0 0 65 19" fill="none" xmlns="http://www.w3.org/2000/svg">
<path d="M5.2 18.97V16.69H6.67V18.97H5.2ZM5.2 2.9V0.609999H6.67V2.9H5.2ZM6.11 17.3C5.15667 17.3 4.29667 17.13 3.53 16.79C2.77 16.45 2.14 15.97 1.64 15.35C1.14667 14.73 0.823333 13.9967 0.67 13.15L2.1 12.9C2.32 13.82 2.79333 14.55 3.52 15.09C4.25333 15.6233 5.13667 15.89 6.17 15.89C7.21667 15.89 8.06333 15.6367 8.71 15.13C9.35667 14.6167 9.68 13.9467 9.68 13.12C9.68 12.5067 9.5 12.0167 9.14 11.65C8.78 11.2833 8.17 10.97 7.31 10.71L4.11 9.71C2.17667 9.10333 1.21 7.95667 1.21 6.27C1.21 5.48333 1.40333 4.79333 1.79 4.2C2.18333 3.6 2.72667 3.13333 3.42 2.8C4.12 2.46667 4.93667 2.30333 5.87 2.31C6.78333 2.31 7.6 2.48333 8.32 2.83C9.04667 3.17 9.64333 3.65333 10.11 4.28C10.5767 4.90667 10.8867 5.65 11.04 6.51L9.57 6.79C9.47667 6.17667 9.26 5.64 8.92 5.18C8.58667 4.72 8.15667 4.36333 7.63 4.11C7.10333 3.85 6.51667 3.71667 5.87 3.71C5.25667 3.71 4.71 3.81667 4.23 4.03C3.75 4.24333 3.37 4.54 3.09 4.92C2.81667 5.29333 2.68 5.72333 2.68 6.21C2.68 6.74333 2.87 7.19667 3.25 7.57C3.63667 7.93667 4.24667 8.24667 5.08 8.5L7.83 9.33C8.99 9.67667 9.82667 10.1433 10.34 10.73C10.8533 11.3167 11.11 12.1 11.11 13.08C11.11 13.9267 10.9033 14.6667 10.49 15.3C10.0767 15.9333 9.49333 16.4267 8.74 16.78C7.99333 17.1267 7.11667 17.3 6.11 17.3ZM19.5173 17V14.21H12.7773V12.81L17.5973 2.6H19.2473L14.4273 12.81H19.5173V8.61H20.9973V12.81H22.5673V14.21H20.9973V17H19.5173ZM29.5189 2.31C30.4256 2.31 31.2456 2.53 31.9789 2.97C32.7189 3.40333 33.3056 3.99667 33.7389 4.75C34.1722 5.49667 34.3889 6.33667 34.3889 7.27V12.27C34.3889 13.23 34.1722 14.09 33.7389 14.85C33.3056 15.61 32.7122 16.21 31.9589 16.65C31.2122 17.0833 30.3622 17.3 29.4089 17.3C28.5889 17.3 27.8289 17.12 27.1289 16.76C26.4356 16.3933 25.8622 15.89 25.4089 15.25L26.5289 14.32C26.8356 14.7933 27.2422 15.1733 27.7489 15.46C28.2622 15.7467 28.8156 15.89 29.4089 15.89C30.0889 15.89 30.6889 15.73 31.2089 15.41C31.7356 15.0833 32.1489 14.6567 32.4489 14.13C32.7556 13.5967 32.9089 13.02 32.9089 12.4V9.26L33.2689 9.68C32.8556 10.34 32.3056 10.8733 31.6189 11.28C30.9389 11.6867 30.1922 11.89 29.3789 11.89C28.4922 11.89 27.6889 11.6767 26.9689 11.25C26.2556 10.8233 25.6889 10.25 25.2689 9.53C24.8556 8.81 24.6489 8.00667 24.6489 7.12C24.6489 6.23333 24.8689 5.42667 25.3089 4.7C25.7489 3.96667 26.3389 3.38667 27.0789 2.96C27.8189 2.52667 28.6322 2.31 29.5189 2.31ZM29.5189 3.73C28.8922 3.73 28.3222 3.88333 27.8089 4.19C27.2956 4.49 26.8856 4.89667 26.5789 5.41C26.2789 5.92333 26.1289 6.49333 26.1289 7.12C26.1289 7.74667 26.2789 8.31667 26.5789 8.83C26.8789 9.34333 27.2856 9.75333 27.7989 10.06C28.3122 10.36 28.8822 10.51 29.5089 10.51C30.1356 10.51 30.7056 10.36 31.2189 10.06C31.7389 9.75333 32.1489 9.34333 32.4489 8.83C32.7556 8.31667 32.9089 7.74667 32.9089 7.12C32.9089 6.5 32.7556 5.93333 32.4489 5.42C32.1489 4.90667 31.7422 4.49667 31.2289 4.19C30.7156 3.88333 30.1456 3.73 29.5189 3.73ZM37.0511 17V15.29H38.7611V17H37.0511ZM46.5492 17.3C45.6626 17.3 44.8626 17.0933 44.1492 16.68C43.4426 16.2667 42.8826 15.7067 42.4692 15C42.0559 14.2867 41.8492 13.4867 41.8492 12.6V7C41.8492 6.11333 42.0559 5.31667 42.4692 4.61C42.8826 3.89667 43.4426 3.33333 44.1492 2.92C44.8626 2.50667 45.6626 2.3 46.5492 2.3C47.4359 2.3 48.2326 2.50667 48.9392 2.92C49.6526 3.33333 50.2159 3.89667 50.6292 4.61C51.0426 5.31667 51.2492 6.11333 51.2492 7V12.6C51.2492 13.4867 51.0426 14.2867 50.6292 15C50.2159 15.7067 49.6526 16.2667 48.9392 16.68C48.2326 17.0933 47.4359 17.3 46.5492 17.3ZM46.5492 15.88C47.1426 15.88 47.6826 15.7367 48.1692 15.45C48.6559 15.1567 49.0426 14.7667 49.3292 14.28C49.6159 13.7933 49.7592 13.2567 49.7592 12.67V6.93C49.7592 6.33667 49.6159 5.79667 49.3292 5.31C49.0426 4.82333 48.6559 4.43667 48.1692 4.15C47.6826 3.85667 47.1426 3.71 46.5492 3.71C45.9559 3.71 45.4159 3.85667 44.9292 4.15C44.4426 4.43667 44.0559 4.82333 43.7692 5.31C43.4826 5.79667 43.3392 6.33667 43.3392 6.93V12.67C43.3392 13.2567 43.4826 13.7933 43.7692 14.28C44.0559 14.7667 44.4426 15.1567 44.9292 15.45C45.4159 15.7367 45.9559 15.88 46.5492 15.88ZM58.7563 17.3C57.8696 17.3 57.0696 17.0933 56.3563 16.68C55.6496 16.2667 55.0896 15.7067 54.6763 15C54.2629 14.2867 54.0563 13.4867 54.0563 12.6V7C54.0563 6.11333 54.2629 5.31667 54.6763 4.61C55.0896 3.89667 55.6496 3.33333 56.3563 2.92C57.0696 2.50667 57.8696 2.3 58.7563 2.3C59.6429 2.3 60.4396 2.50667 61.1463 2.92C61.8596 3.33333 62.4229 3.89667 62.8363 4.61C63.2496 5.31667 63.4563 6.11333 63.4563 7V12.6C63.4563 13.4867 63.2496 14.2867 62.8363 15C62.4229 15.7067 61.8596 16.2667 61.1463 16.68C60.4396 17.0933 59.6429 17.3 58.7563 17.3ZM58.7563 15.88C59.3496 15.88 59.8896 15.7367 60.3763 15.45C60.8629 15.1567 61.2496 14.7667 61.5363 14.28C61.8229 13.7933 61.9663 13.2567 61.9663 12.67V6.93C61.9663 6.33667 61.8229 5.79667 61.5363 5.31C61.2496 4.82333 60.8629 4.43667 60.3763 4.15C59.8896 3.85667 59.3496 3.71 58.7563 3.71C58.1629 3.71 57.6229 3.85667 57.1363 4.15C56.6496 4.43667 56.2629 4.82333 55.9763 5.31C55.6896 5.79667 55.5463 6.33667 55.5463 6.93V12.67C55.5463 13.2567 55.6896 13.7933 55.9763 14.28C56.2629 14.7667 56.6496 15.1567 57.1363 15.45C57.6229 15.7367 58.1629 15.88 58.7563 15.88Z" fill="#9397AD"/>
<path d="M0 10.52H64.8562V11.02H0V10.52Z" fill="#9397AD"/>
</svg>
