<svg width="80" height="84" viewBox="0 0 80 84" fill="none" xmlns="http://www.w3.org/2000/svg">
<circle cx="40" cy="40" r="40" fill="#F3F6FF"/>
<g filter="url(#filter0_dd_20005153_5191)">
<circle cx="40" cy="40" r="28" fill="white"/>
</g>
<path d="M39.7496 49.36C38.8776 49.36 38.0576 49.18 37.2896 48.82C36.5296 48.46 35.8736 47.96 35.3216 47.32C34.7696 46.68 34.3736 45.936 34.1336 45.088L37.2776 44.248C37.3816 44.656 37.5656 45.008 37.8296 45.304C38.1016 45.6 38.4136 45.832 38.7656 46C39.1256 46.16 39.4936 46.24 39.8696 46.24C40.3656 46.24 40.8176 46.12 41.2256 45.88C41.6416 45.64 41.9696 45.316 42.2096 44.908C42.4576 44.5 42.5816 44.048 42.5816 43.552C42.5816 43.056 42.4576 42.604 42.2096 42.196C41.9696 41.788 41.6416 41.464 41.2256 41.224C40.8176 40.984 40.3656 40.864 39.8696 40.864C39.2616 40.864 38.7656 40.968 38.3816 41.176C37.9976 41.376 37.7096 41.568 37.5176 41.752L34.7576 40.912L35.2856 31.72H44.7176V34.768H37.0856L38.2376 33.688L37.8776 39.616L37.3256 38.944C37.7576 38.592 38.2496 38.336 38.8016 38.176C39.3536 38.016 39.8696 37.936 40.3496 37.936C41.4376 37.936 42.3936 38.18 43.2176 38.668C44.0496 39.148 44.6976 39.812 45.1616 40.66C45.6336 41.5 45.8696 42.464 45.8696 43.552C45.8696 44.64 45.5856 45.624 45.0176 46.504C44.4496 47.376 43.7016 48.072 42.7736 48.592C41.8456 49.104 40.8376 49.36 39.7496 49.36Z" fill="#0B0F19"/>
<defs>
<filter id="filter0_dd_20005153_5191" x="1" y="5.4" width="78" height="78" filterUnits="userSpaceOnUse" color-interpolation-filters="sRGB">
<feFlood flood-opacity="0" result="BackgroundImageFix"/>
<feColorMatrix in="SourceAlpha" type="matrix" values="0 0 0 0 0 0 0 0 0 0 0 0 0 0 0 0 0 0 127 0" result="hardAlpha"/>
<feMorphology radius="1" operator="erode" in="SourceAlpha" result="effect1_dropShadow_20005153_5191"/>
<feOffset dy="2"/>
<feGaussianBlur stdDeviation="3.2"/>
<feColorMatrix type="matrix" values="0 0 0 0 0.0745098 0 0 0 0 0.0627451 0 0 0 0 0.133333 0 0 0 0.03 0"/>
<feBlend mode="normal" in2="BackgroundImageFix" result="effect1_dropShadow_20005153_5191"/>
<feColorMatrix in="SourceAlpha" type="matrix" values="0 0 0 0 0 0 0 0 0 0 0 0 0 0 0 0 0 0 127 0" result="hardAlpha"/>
<feMorphology radius="1" operator="erode" in="SourceAlpha" result="effect2_dropShadow_20005153_5191"/>
<feOffset dy="4.4"/>
<feGaussianBlur stdDeviation="6"/>
<feColorMatrix type="matrix" values="0 0 0 0 0.0745098 0 0 0 0 0.0627451 0 0 0 0 0.133333 0 0 0 0.06 0"/>
<feBlend mode="normal" in2="effect1_dropShadow_20005153_5191" result="effect2_dropShadow_20005153_5191"/>
<feBlend mode="normal" in="SourceGraphic" in2="effect2_dropShadow_20005153_5191" result="shape"/>
</filter>
</defs>
</svg>
