<svg width="65" height="68" viewBox="0 0 65 68" fill="none" xmlns="http://www.w3.org/2000/svg">
<path d="M53.9758 51.8854C62.2951 41.1874 55.8742 25.4614 42.1346 24.6471C41.4465 24.5781 40.6779 24.6418 40.0155 24.6808C40.1831 33.8737 35.9481 43.8559 28.5924 46.3533C21.954 48.571 18.27 42.0141 20.9876 36.4854C24.2429 29.9208 30.0055 24.4864 37.0391 22.5193C36.448 16.7294 33.6539 11.5625 27.5229 9.78793C17.1902 6.81876 6.49509 16.4701 5.04158 26.3794C4.95408 27.4254 3.36564 27.3365 3.45314 26.2906C3.97977 12.9483 19.6336 2.49316 31.8486 8.67448C36.5709 11.1165 39.1269 16.2244 39.8242 21.9898C47.2206 21.0786 54.3113 25.4807 58.1561 31.7722C62.576 39.0709 60.5804 47.168 55.6339 53.2116C54.8584 54.1888 53.3063 52.8377 53.9758 51.8854ZM26.791 32.6372C24.8666 34.9054 22.7521 37.7873 22.4896 40.9252C22.2014 43.9548 26.253 44.0446 27.9767 43.7601C30.1249 43.3777 31.6761 41.4237 32.8285 39.6758C35.4257 35.9987 37.137 30.4746 37.2303 25.2104C33.1682 26.4909 29.6228 29.4755 26.791 32.6372Z" fill="#6366F1"/>
<path d="M51.4689 58.7597C50.7507 55.7346 50.2191 52.5523 50.2694 49.4636C50.3057 48.2018 52.0259 48.374 52.0958 49.6117C52.2356 52.0867 52.9317 54.5471 53.6021 56.8995C54.9559 56.4727 56.4161 56.0214 57.7444 55.4866C58.7544 55.0254 60.1668 53.9013 61.382 54.3044C61.9897 54.5059 62.118 55.0461 62.0338 55.6353C61.811 57.0544 59.5823 57.5693 58.4662 58.0551C56.6326 58.8206 54.8542 59.3452 52.9437 59.7866C52.3073 59.9336 51.6228 59.408 51.4689 58.7597Z" fill="#6366F1"/>
</svg>
