<svg width="113" height="44" viewBox="0 0 113 44" fill="none" xmlns="http://www.w3.org/2000/svg">
<path d="M32.9668 16.6515H35.7148V27.7944H32.9668V16.6515ZM36.8105 23.6029C36.8105 20.8429 38.5226 19.1887 41.0908 19.1887C43.659 19.1887 45.3711 20.8429 45.3711 23.6029C45.3711 26.3629 43.7189 28.0344 41.0908 28.0344C38.4627 28.0344 36.8105 26.4229 36.8105 23.6029ZM42.6488 23.6029C42.6488 22.0858 42.0582 21.1944 41.1165 21.1944C40.1748 21.1944 39.5927 22.0515 39.5927 23.6029C39.5927 25.1544 40.1748 26.0029 41.1165 26.0029C42.0582 26.0029 42.666 25.1544 42.666 23.6115L42.6488 23.6029ZM46.4669 28.3687H49.1207C49.2415 28.6547 49.4525 28.8934 49.7214 29.0481C49.9904 29.2029 50.3025 29.2653 50.6102 29.2258C51.6632 29.2258 52.211 28.6601 52.211 27.8201V26.2772H52.2196C51.9928 26.7577 51.6261 27.158 51.1678 27.4258C50.7093 27.6936 50.1807 27.8161 49.6514 27.7772C47.6397 27.7772 46.3042 26.2429 46.3042 23.6029C46.3042 20.9629 47.5798 19.3172 49.7285 19.3172C50.2713 19.2882 50.8098 19.4283 51.2697 19.7185C51.7297 20.0086 52.0885 20.4344 52.2966 20.9372H52.2196V19.3858H54.9419V27.7344C54.9419 29.7487 53.1613 31.0087 50.5417 31.0087C48.1619 31.0001 46.6381 29.9115 46.484 28.3772L46.4669 28.3687ZM52.2196 23.6029C52.2196 22.2572 51.6032 21.4087 50.6273 21.4087C49.6514 21.4087 49.0522 22.2658 49.0522 23.6029C49.0522 24.9401 49.6429 25.7287 50.6273 25.7287C51.6118 25.7287 52.2196 25.0001 52.2196 23.6029ZM56.0291 23.6029C56.0291 20.8429 57.7412 19.1887 60.3094 19.1887C62.8776 19.1887 64.5897 20.8429 64.5897 23.6029C64.5897 26.3629 62.9289 28.0344 60.3094 28.0344C57.6898 28.0344 56.0462 26.4229 56.0462 23.6029H56.0291ZM61.8674 23.6029C61.8674 22.0858 61.2682 21.1944 60.3351 21.1944C59.402 21.1944 58.8113 22.0515 58.8113 23.6029C58.8113 25.1544 59.3934 26.0029 60.3351 26.0029C61.2767 26.0029 61.8845 25.1544 61.8845 23.6115L61.8674 23.6029ZM65.7026 17.3544C65.6906 17.0741 65.7626 16.7966 65.9095 16.5577C66.0563 16.3188 66.2712 16.1293 66.5264 16.0137C66.7817 15.898 67.0657 15.8615 67.3418 15.9088C67.618 15.956 67.8737 16.0849 68.0761 16.2789C68.2784 16.473 68.4182 16.7231 68.4775 16.9973C68.5366 17.2715 68.5126 17.5572 68.4083 17.8175C68.304 18.0779 68.1244 18.3011 67.8924 18.4584C67.6604 18.6157 67.3867 18.6998 67.1065 18.7001C66.9275 18.7046 66.7493 18.6735 66.5823 18.6086C66.4154 18.5437 66.2629 18.4461 66.1339 18.3217C66.0049 18.1974 65.9019 18.0486 65.8308 17.8839C65.7597 17.7193 65.7219 17.5423 65.7197 17.3629L65.7026 17.3544ZM65.7026 19.3772H68.4848V27.8287H65.7454L65.7026 19.3772ZM78.4921 23.6029C78.4921 26.3544 77.2594 27.9487 75.162 27.9487C74.6251 27.9818 74.0909 27.8491 73.6316 27.5687C73.1724 27.2881 72.8102 26.8733 72.5938 26.3801H72.5425V30.5458H69.7945V19.4029H72.5254V20.9115H72.5767C72.7856 20.4086 73.1443 19.9824 73.6038 19.6909C74.0634 19.3995 74.6016 19.2571 75.1449 19.2829C77.3022 19.2658 78.5435 20.8515 78.5435 23.6115L78.4921 23.6029ZM75.6928 23.6029C75.6928 22.2658 75.0679 21.4001 74.1005 21.4001C73.1332 21.4001 72.5254 22.2572 72.5168 23.6029C72.5082 24.9487 73.1332 25.7972 74.1005 25.7972C75.0679 25.7972 75.7442 25.0001 75.7442 23.6115L75.6928 23.6029ZM83.1833 19.1801C85.4861 19.1801 86.9157 20.2687 86.9329 22.0172H84.4246C84.4246 21.4087 83.9195 21.0315 83.1662 21.0315C82.4129 21.0315 82.0533 21.3229 82.0533 21.7601C82.0533 22.1972 82.3701 22.3344 83.0035 22.4629L84.767 22.8229C86.4791 23.1829 87.164 23.8687 87.164 25.1458C87.164 26.8601 85.5803 28.0258 83.2261 28.0258C80.872 28.0258 79.3396 26.8944 79.2283 25.1715H81.8907C81.9677 25.7972 82.4642 26.1658 83.2689 26.1658C84.0736 26.1658 84.4503 25.9087 84.4503 25.4544C84.4503 25.0001 84.1935 24.9229 83.5343 24.7858L81.942 24.4515C80.2898 24.1001 79.4252 23.2344 79.4252 21.9401C79.4766 20.2601 80.9148 19.1887 83.2347 19.1887L83.1833 19.1801ZM96.3666 27.8201H93.7043V26.2344H93.6529C93.504 26.7633 93.1795 27.2256 92.7327 27.5449C92.2858 27.8644 91.7439 28.0219 91.196 27.9915C90.7826 28.005 90.3699 27.9307 89.9873 27.7735C89.6046 27.6164 89.2588 27.3799 88.9737 27.0797C88.6878 26.7793 88.4695 26.422 88.3317 26.0311C88.1938 25.6403 88.1399 25.2246 88.1742 24.8115V19.3858H90.9221V24.2201C90.9221 25.2144 91.4443 25.7544 92.3004 25.7544C92.5015 25.7528 92.6993 25.7082 92.8816 25.6235C93.064 25.5387 93.2258 25.4158 93.3559 25.2631C93.4869 25.1103 93.5836 24.9313 93.6392 24.7381C93.694 24.5448 93.7077 24.3419 93.6786 24.1429V19.3858H96.418L96.3666 27.8201ZM97.6935 19.3772H100.364V21.0058H100.424C100.572 20.4841 100.888 20.0261 101.323 19.7035C101.759 19.3809 102.289 19.2119 102.83 19.2229C103.374 19.1756 103.915 19.333 104.349 19.6643C104.783 19.9956 105.077 20.477 105.176 21.0144H105.295C105.467 20.4741 105.811 20.0056 106.276 19.6817C106.74 19.3577 107.299 19.1965 107.864 19.2229C108.239 19.2086 108.614 19.2739 108.963 19.4146C109.312 19.5552 109.627 19.768 109.888 20.0391C110.149 20.3101 110.35 20.6334 110.477 20.9875C110.605 21.3417 110.657 21.7189 110.629 22.0944V27.8287H107.864V22.7972C107.864 21.9401 107.461 21.4601 106.682 21.4601C106.509 21.4573 106.338 21.4919 106.18 21.5615C106.021 21.6312 105.881 21.7343 105.766 21.8637C105.651 21.9932 105.566 22.1459 105.515 22.3115C105.466 22.4771 105.452 22.6515 105.475 22.8229V27.8287H102.856V22.7715C102.856 21.9144 102.436 21.4601 101.683 21.4601C101.508 21.4587 101.335 21.4947 101.176 21.5657C101.016 21.6367 100.874 21.7411 100.757 21.8718C100.642 22.0025 100.555 22.1565 100.504 22.3235C100.452 22.4905 100.436 22.6667 100.459 22.8401V27.8287H97.7107L97.6935 19.3772Z" fill="#B4B7C9"/>
<path d="M27.5308 17.3801C27.5309 15.6741 27.0164 14.0079 26.0547 12.5997C25.093 11.1914 23.7289 10.1069 22.1412 9.488C20.5534 8.86913 18.816 8.74485 17.1565 9.13141C15.4969 9.51797 13.9928 10.3974 12.8408 11.6544H2.15723V34.2315H24.7144V23.6801C25.5997 22.8873 26.3082 21.9164 26.7935 20.8308C27.2788 19.7452 27.5301 18.5695 27.5308 17.3801ZM23.1906 17.3801C23.1923 18.1976 22.9518 18.9972 22.4994 19.6778C22.047 20.3583 21.4033 20.8892 20.6494 21.2031C19.8956 21.5172 19.0657 21.6003 18.2647 21.4418C17.4637 21.2834 16.7277 20.8905 16.1498 20.3131C15.5719 19.7356 15.1781 18.9995 15.0182 18.1978C14.8582 17.3962 14.9395 16.5651 15.2515 15.8097C15.5635 15.0542 16.0924 14.4085 16.7711 13.9541C17.4499 13.4998 18.248 13.2573 19.0644 13.2573C20.1573 13.2573 21.2055 13.6914 21.979 14.4643C22.7527 15.2372 23.1884 16.2859 23.1906 17.3801ZM20.3742 29.8858H6.49745V16.0001H10.7264C10.6447 16.4557 10.6017 16.9173 10.598 17.3801C10.6003 19.6277 11.493 21.7826 13.0803 23.3719C14.6675 24.9611 16.8196 25.855 19.0644 25.8573C19.5033 25.8549 19.9413 25.8177 20.3742 25.7458V29.8858Z" fill="#B4B7C9"/>
</svg>
