<svg width="20" height="20" viewBox="0 0 20 20" fill="none" xmlns="http://www.w3.org/2000/svg">
<path d="M10.0003 13.3334C11.8387 13.3334 13.3337 11.8384 13.3337 10.0001C13.3337 8.16175 11.8387 6.66675 10.0003 6.66675C8.16199 6.66675 6.66699 8.16175 6.66699 10.0001C6.66699 11.8384 8.16199 13.3334 10.0003 13.3334ZM10.0003 8.33341C10.9037 8.33341 11.667 9.09675 11.667 10.0001C11.667 10.9034 10.9037 11.6667 10.0003 11.6667C9.09699 11.6667 8.33366 10.9034 8.33366 10.0001C8.33366 9.09675 9.09699 8.33341 10.0003 8.33341Z" fill="#9397AD"/>
<path d="M2.37086 13.4467L3.20419 14.8884C3.64669 15.6526 4.71169 15.9392 5.47919 15.4967L5.92003 15.2417C6.40503 15.6226 6.93753 15.9351 7.50003 16.1684V16.6667C7.50003 17.5859 8.24753 18.3334 9.16669 18.3334H10.8334C11.7525 18.3334 12.5 17.5859 12.5 16.6667V16.1684C13.0625 15.9351 13.595 15.6226 14.08 15.2426L14.5209 15.4976C15.29 15.9392 16.3525 15.6542 16.7967 14.8884L17.6292 13.4476C18.0892 12.6517 17.8159 11.6301 17.02 11.1709L16.5992 10.9276C16.6442 10.6184 16.6667 10.3092 16.6667 10.0001C16.6667 9.69092 16.6442 9.38092 16.5992 9.07425L17.02 8.83092C17.8159 8.37092 18.0892 7.35008 17.6292 6.55425L16.7967 5.11342C16.3542 4.34675 15.29 4.05925 14.5209 4.50341L14.08 4.75841C13.595 4.37758 13.0625 4.06508 12.5 3.83175V3.33341C12.5 2.41425 11.7525 1.66675 10.8334 1.66675H9.16669C8.24753 1.66675 7.50003 2.41425 7.50003 3.33341V3.83175C6.93753 4.06508 6.40503 4.37758 5.92003 4.75758L5.47919 4.50258C4.70919 4.06008 3.64586 4.34675 3.20336 5.11258L2.37086 6.55341C1.91086 7.34925 2.18419 8.37091 2.98003 8.83008L3.40086 9.07341C3.35586 9.38091 3.33336 9.69092 3.33336 10.0001C3.33336 10.3092 3.35586 10.6184 3.40086 10.9259L2.98003 11.1692C2.18419 11.6292 1.91086 12.6509 2.37086 13.4467ZM5.14253 11.1484C5.04836 10.7709 5.00003 10.3842 5.00003 10.0001C5.00003 9.61508 5.04836 9.22841 5.14169 8.85175C5.23169 8.49091 5.07253 8.11425 4.75003 7.92841L3.81419 7.38675L4.64586 5.94592L5.60003 6.49758C5.92003 6.68175 6.32253 6.63508 6.59003 6.37925C7.15919 5.84008 7.84586 5.43675 8.57669 5.21341C8.92753 5.10675 9.16669 4.78258 9.16669 4.41675V3.33341H10.8334V4.41675C10.8334 4.78258 11.0725 5.10675 11.4234 5.21341C12.1542 5.43758 12.8409 5.84008 13.41 6.37925C13.6775 6.63508 14.0817 6.68091 14.4 6.49758L15.3534 5.94675L16.1867 7.38758L15.25 7.92841C14.9275 8.11508 14.7684 8.49175 14.8584 8.85175C14.9517 9.22841 15 9.61508 15 10.0001C15 10.3842 14.9517 10.7709 14.8575 11.1484C14.7684 11.5092 14.9275 11.8859 15.25 12.0717L16.1859 12.6126L15.3542 14.0534L14.4 13.5026C14.0809 13.3184 13.6775 13.3642 13.41 13.6209C12.8409 14.1601 12.1542 14.5634 11.4234 14.7867C11.0725 14.8934 10.8334 15.2176 10.8334 15.5834L10.835 16.6667H9.16669V15.5834C9.16669 15.2176 8.92753 14.8934 8.57669 14.7867C7.84586 14.5626 7.15919 14.1601 6.59003 13.6209C6.43169 13.4692 6.22503 13.3917 6.01669 13.3917C5.87336 13.3917 5.73003 13.4284 5.60003 13.5034L4.64669 14.0551L3.81336 12.6142L4.75003 12.0717C5.07253 11.8859 5.23169 11.5092 5.14253 11.1484Z" fill="#9397AD"/>
</svg>
