<svg width="20" height="20" viewBox="0 0 20 20" fill="none" xmlns="http://www.w3.org/2000/svg">
<path d="M10.0001 1.66666C5.40508 1.66666 1.66675 5.40499 1.66675 9.99999C1.66675 14.595 5.40508 18.3333 10.0001 18.3333C14.5951 18.3333 18.3334 14.595 18.3334 9.99999C18.3334 5.40499 14.5951 1.66666 10.0001 1.66666ZM10.0001 16.6667C6.32425 16.6667 3.33341 13.6758 3.33341 9.99999C3.33341 6.32416 6.32425 3.33332 10.0001 3.33332C13.6759 3.33332 16.6667 6.32416 16.6667 9.99999C16.6667 13.6758 13.6759 16.6667 10.0001 16.6667Z" fill="#6366F1"/>
<path d="M8.33249 11.3225L6.41666 9.40999L5.23999 10.59L8.33416 13.6775L13.9225 8.08916L12.7442 6.91083L8.33249 11.3225Z" fill="#6366F1"/>
</svg>
