<svg width="20" height="20" viewBox="0 0 20 20" fill="none" xmlns="http://www.w3.org/2000/svg">
<path d="M16.5858 7.15508C16.545 7.06675 16.4941 6.98258 16.4225 6.91092L11.4225 1.91091C11.3508 1.83925 11.2666 1.78841 11.1783 1.74758C11.1533 1.73591 11.1266 1.72925 11.1 1.72008C11.03 1.69675 10.9583 1.68175 10.8841 1.67758C10.8666 1.67591 10.8508 1.66675 10.8333 1.66675H4.99998C4.08081 1.66675 3.33331 2.41425 3.33331 3.33341V16.6667C3.33331 17.5859 4.08081 18.3334 4.99998 18.3334H15C15.9191 18.3334 16.6666 17.5859 16.6666 16.6667V7.50008C16.6666 7.48258 16.6575 7.46675 16.6558 7.44841C16.6516 7.37425 16.6375 7.30258 16.6133 7.23258C16.605 7.20591 16.5975 7.18008 16.5858 7.15508ZM13.8216 6.66675H11.6666V4.51175L13.8216 6.66675ZM4.99998 16.6667V3.33341H9.99998V7.50008C9.99998 7.96091 10.3725 8.33342 10.8333 8.33342H15L15.0016 16.6667H4.99998Z" fill="#9397AD"/>
<path d="M6.66669 9.99996H13.3334V11.6666H6.66669V9.99996ZM6.66669 13.3333H13.3334V15H6.66669V13.3333ZM6.66669 6.66663H8.33335V8.33329H6.66669V6.66663Z" fill="#9397AD"/>
</svg>
