<svg width="20" height="20" viewBox="0 0 20 20" fill="none" xmlns="http://www.w3.org/2000/svg">
<path d="M14.1667 5.83337C12.4217 5.83337 11.1575 7.13921 9.99919 8.62171C8.84085 7.13921 7.57752 5.83337 5.83335 5.83337C3.53585 5.83337 1.66669 7.70254 1.66669 10C1.66669 11.1117 2.09919 12.1575 2.88252 12.945C3.66835 13.7325 4.71335 14.1667 5.82502 14.1667C5.82502 14.1667 5.83419 14.1667 5.83502 14.1667C7.57585 14.1625 8.83919 12.8567 9.99835 11.3742C11.1575 12.8592 12.4217 14.1667 14.1667 14.1667C16.4642 14.1667 18.3334 12.2975 18.3334 10C18.3334 7.70254 16.4642 5.83337 14.1667 5.83337ZM5.83169 12.5L5.82502 13.3334V12.5C5.15919 12.5 4.53335 12.24 4.06335 11.7684C3.59252 11.2959 3.33335 10.6675 3.33335 10C3.33335 8.62171 4.45502 7.50004 5.83335 7.50004C6.94169 7.50004 7.96669 8.69837 8.95502 9.99837C7.96502 11.2975 6.94002 12.4975 5.83169 12.5ZM14.1667 12.5C13.0584 12.5 12.0325 11.3 11.0425 9.99837C12.0317 8.69837 13.0567 7.50004 14.1667 7.50004C15.545 7.50004 16.6667 8.62171 16.6667 10C16.6667 11.3784 15.545 12.5 14.1667 12.5Z" fill="#9397AD"/>
</svg>
