<svg width="24" height="24" viewBox="0 0 24 24" fill="none" xmlns="http://www.w3.org/2000/svg">
<path d="M20.283 10.3561H11.956V13.8071H16.748C16.302 16.0001 14.435 17.2601 11.956 17.2601C9.03297 17.2601 6.67697 14.9041 6.67697 11.9801C6.67697 9.05712 9.03297 6.70112 11.956 6.70112C13.215 6.70112 14.353 7.14812 15.246 7.87912L17.846 5.28012C16.262 3.89912 14.231 3.04712 11.956 3.04712C7.00197 3.04712 3.02197 7.02612 3.02197 11.9811C3.02197 16.9361 7.00097 20.9151 11.956 20.9151C16.423 20.9151 20.485 17.6661 20.485 11.9811C20.485 11.4531 20.404 10.8841 20.283 10.3561Z" fill="#33354D"/>
</svg>
