<svg width="60" height="60" viewBox="0 0 60 60" fill="none" xmlns="http://www.w3.org/2000/svg">
<rect width="60" height="60" rx="30" fill="white"/>
<g clip-path="url(#clip0_20005153_3734)">
<path d="M30.2129 34.4077C29.5282 33.93 28.7965 33.5408 28.0313 33.2434C29.0492 32.3182 29.7245 31.0222 29.842 29.5713C31.3856 28.0671 33.4091 27.2426 35.5782 27.2426C37.2716 27.2426 38.8975 27.7525 40.2805 28.717C40.7761 29.0626 41.4575 28.9413 41.8032 28.4457C42.1486 27.9503 42.0273 27.2686 41.5319 26.9232C40.8472 26.4455 40.1154 26.0565 39.3502 25.7589C40.4734 24.738 41.1796 23.266 41.1796 21.6322C41.1796 18.5566 38.6777 16.0547 35.6021 16.0547C32.5268 16.0547 30.0249 18.5566 30.0249 21.6322C30.0249 23.2593 30.7253 24.7261 31.8409 25.7466C31.6881 25.8053 31.5362 25.8675 31.3859 25.9337C30.7014 26.2349 30.058 26.6053 29.4596 27.0403C28.6344 24.9901 26.6253 23.5392 24.2833 23.5392C21.208 23.5392 18.7058 26.0411 18.7058 29.1165C18.7058 30.7391 19.4025 32.2018 20.512 33.2219C17.5454 34.3333 15.14 36.7206 14.1608 39.7651C13.8361 40.7747 14.008 41.8454 14.6327 42.7027C15.2573 43.5597 16.2237 44.0513 17.2842 44.0513H26.7987C27.4026 44.0513 27.8923 43.5617 27.8923 42.9575C27.8923 42.3536 27.4026 41.864 26.7987 41.864H17.2842C16.9306 41.864 16.6085 41.7001 16.4002 41.4143C16.1919 41.1285 16.1347 40.7715 16.2428 40.4349C17.3237 37.0741 20.6203 34.7271 24.2594 34.7271C25.9526 34.7271 27.5787 35.237 28.9617 36.2015C29.4571 36.5471 30.1387 36.4256 30.4844 35.9302C30.8298 35.4348 30.7085 34.7531 30.2129 34.4077ZM35.6021 18.242C37.4716 18.242 38.9923 19.7628 38.9923 21.6322C38.9923 23.5014 37.4716 25.0224 35.6021 25.0224C33.7329 25.0224 32.2119 23.5014 32.2119 21.6322C32.2119 19.7628 33.7329 18.242 35.6021 18.242ZM24.2833 25.7263C26.1527 25.7263 27.6735 27.2473 27.6735 29.1165C27.6735 30.9859 26.1527 32.5067 24.2833 32.5067C22.4139 32.5067 20.8931 30.9859 20.8931 29.1165C20.8931 27.2473 22.4139 25.7263 24.2833 25.7263ZM41.9999 38.8566C41.9999 39.4605 41.5103 39.9501 40.9062 39.9501H37.8988V42.9575C37.8988 43.5617 37.4092 44.0513 36.8053 44.0513C36.2011 44.0513 35.7115 43.5617 35.7115 42.9575V39.9501H32.7041C32.1002 39.9501 31.6106 39.4605 31.6106 38.8566C31.6106 38.2525 32.1002 37.7629 32.7041 37.7629H35.7115V34.7555C35.7115 34.1516 36.2011 33.6619 36.8053 33.6619C37.4092 33.6619 37.8988 34.1516 37.8988 34.7555V37.7629H40.9062C41.5103 37.7629 41.9999 38.2525 41.9999 38.8566Z" fill="#6366F1"/>
</g>
<defs>
<clipPath id="clip0_20005153_3734">
<rect width="28" height="28" fill="white" transform="translate(14 16)"/>
</clipPath>
</defs>
</svg>
