<svg width="60" height="60" viewBox="0 0 60 60" fill="none" xmlns="http://www.w3.org/2000/svg">
<rect width="60" height="60" rx="30" fill="white"/>
<path d="M39.3333 20.6667H20.6667C19.3798 20.6667 18.3333 21.7132 18.3333 23.0001V37.0001C18.3333 38.2869 19.3798 39.3334 20.6667 39.3334H39.3333C40.6202 39.3334 41.6667 38.2869 41.6667 37.0001V23.0001C41.6667 21.7132 40.6202 20.6667 39.3333 20.6667ZM39.3333 23.0001V23.5962L30 30.8564L20.6667 23.5974V23.0001H39.3333ZM20.6667 37.0001V26.5514L29.2837 33.2539C29.4937 33.4184 29.7468 33.5001 30 33.5001C30.2532 33.5001 30.5063 33.4184 30.7163 33.2539L39.3333 26.5514L39.3357 37.0001H20.6667Z" fill="#6366F1"/>
</svg>
