<svg width="14" height="16" viewBox="0 0 14 16" fill="none" xmlns="http://www.w3.org/2000/svg">
<path d="M1.7522 15.4999H4.7522H9.2522H12.2522C13.0794 15.4999 13.7522 14.8272 13.7522 13.9999V7.24994C13.7522 7.05119 13.6734 6.85994 13.5324 6.71969L7.53245 0.719693C7.2392 0.426443 6.7652 0.426443 6.47195 0.719693L0.471947 6.71969C0.330947 6.85994 0.252197 7.05119 0.252197 7.24994V13.9999C0.252197 14.8272 0.924947 15.4999 1.7522 15.4999ZM5.5022 13.9999V10.2499H8.5022V13.9999H5.5022ZM1.7522 7.56044L7.0022 2.31044L12.2522 7.56044L12.2529 13.9999H10.0022V10.2499C10.0022 9.42269 9.32945 8.74994 8.5022 8.74994H5.5022C4.67495 8.74994 4.0022 9.42269 4.0022 10.2499V13.9999H1.7522V7.56044Z" fill="#9397AD"/>
</svg>
