<svg width="54" height="56" viewBox="0 0 54 56" fill="none" xmlns="http://www.w3.org/2000/svg">
<path fill-rule="evenodd" clip-rule="evenodd" d="M52.231 40.0173L52.2259 40.0357C52.0563 40.6562 47.8606 56.005 32.1038 56.0004C18.2647 55.9961 11.7052 43.8261 11.7052 43.8261C10.6966 43.883 9.72343 43.721 8.82579 43.3874C4.76554 41.8783 2.81744 37.1787 4.21836 33.236L1.98683 31.5107C-6.6574 24.8485 17.8301 -5.63756 26.4894 1.26082C26.5332 1.29568 28.5564 2.94331 28.5564 2.94331C31.6656 1.03311 34.7447 0.000478807 37.2477 0.000366284C39.0252 0.000141456 40.5118 0.520787 41.5129 1.61752C43.7604 4.07951 42.9527 8.78095 39.8837 13.5409C40.5438 14.1749 41.0908 15.0366 41.4813 15.892C42.457 16.6536 43.0894 17.8115 43.4036 19.4107C43.598 20.3983 43.7067 21.6188 43.8027 22.6953C43.8794 23.5569 43.948 24.3262 44.0456 24.8101C44.2527 24.9046 44.3859 24.9646 44.483 25.0083C44.5743 25.0494 44.6338 25.0762 44.6928 25.1039C44.8029 25.1556 44.9115 25.2105 45.2228 25.3679C45.2765 25.3951 45.3362 25.4253 45.4031 25.459C46.3232 25.9242 47.4435 26.4908 48.6817 27.6961C50.8826 28.254 51.723 30.6213 50.4352 32.237C50.4006 32.2803 50.2451 32.4667 50.0841 32.6522C50.09 32.6678 50.1048 32.6973 50.1268 32.741L50.1269 32.7411C50.249 32.9833 50.5913 33.6622 50.8493 34.8553C51.7613 35.0732 52.4878 35.6413 52.869 36.4651C53.5284 38.0774 52.231 40.0173 52.231 40.0173ZM45.8853 51.9831V52.6463H46.1363V51.9831H46.3931V51.7738H45.6318V51.9831H45.8853ZM46.4697 52.6463V51.7738H46.8275L46.9845 52.2759L47.1391 51.7738H47.4971V52.6463H47.2681V52.0147L47.081 52.6463H46.8858L46.6987 52.0164V52.6463H46.4697Z" fill="#5B453E"/>
<path fill-rule="evenodd" clip-rule="evenodd" d="M50.8242 39.0807C50.6255 39.8244 49.6517 43.4696 45.7539 46.5437C40.34 50.8142 33.2267 50.382 30.5401 47.9888C29.1049 46.6414 28.4837 44.7143 28.4837 44.7143C28.4837 44.7143 28.3212 45.8002 28.2935 46.2268C27.2108 44.3786 27.3024 42.1212 27.3024 42.1212C27.3024 42.1212 26.7248 43.2022 26.4604 43.8077C25.6637 41.7721 26.0753 39.6702 26.0753 39.6702L25.445 40.6133C25.445 40.6133 25.1493 38.3095 25.8751 36.3904C26.6507 34.3398 28.1546 32.8501 28.4518 32.6644C27.3108 32.3004 25.9963 31.2568 25.9941 31.2549C25.9941 31.2549 26.5168 31.2896 26.8801 31.2059C26.8801 31.2059 24.5732 29.547 24.1688 27.0089C24.503 27.4234 25.2042 27.8917 25.2042 27.8917C24.9772 27.2275 24.8399 25.7498 25.052 24.2954L25.0527 24.2938C25.4891 21.5155 27.7703 19.7063 30.3541 19.729C30.8479 19.7334 31.3124 19.7556 31.7556 19.7769C33.7818 19.874 35.3623 19.9498 37.2545 18.1984C37.2811 18.1737 37.3075 18.1492 37.3336 18.125C37.7859 17.7048 38.1695 17.3485 38.8171 17.2044C38.8299 17.2015 38.846 17.1968 38.866 17.191C38.9587 17.164 39.1336 17.113 39.4362 17.113C39.8082 17.113 40.1665 17.197 40.4943 17.3929C41.7452 18.1402 42.0148 20.0892 42.1493 21.5183C42.4531 24.7581 42.4961 25.6652 42.9715 26.1303C43.274 26.4262 43.7514 26.5432 44.5824 26.9682C44.6808 27.0184 44.7804 27.0683 44.8811 27.1188C45.8246 27.5921 46.8736 28.1184 48.0514 29.3842C48.058 29.3913 48.0673 29.3955 48.077 29.3957C49.1764 29.4221 49.7431 30.291 49.2358 30.9237C45.5465 35.3461 40.3939 37.4638 34.6514 37.641C34.4672 37.6457 34.1048 37.6542 33.9504 37.6578C33.9058 37.6589 33.8785 37.6595 33.8779 37.6595C31.5585 37.73 30.8034 40.7418 32.2586 42.5531C33.1784 43.6979 34.9475 44.0741 36.4036 44.0798L36.4242 44.0724C42.7028 44.2001 49.0106 39.7405 50.1 37.2812C50.1079 37.2635 50.1744 37.1069 50.1744 37.1069C50.1744 37.1069 50.1165 37.1751 50.0464 37.2327C50.043 37.235 50.0265 37.2502 49.9971 37.2771C49.4021 37.8228 43.5632 43.1768 36.3746 42.9745C36.3746 42.9745 35.5621 42.9576 34.7971 42.7788C33.7882 42.5432 33.0217 42.0983 32.7284 41.0889C32.6412 40.904 32.5911 40.2644 32.707 39.8339C33.0225 38.7739 33.5509 38.7646 34.3685 38.7503C34.4908 38.7482 34.6197 38.7459 34.7552 38.74H34.7553C38.4745 38.6157 41.4756 37.677 43.7247 36.6052C46.1231 35.4622 47.951 33.9896 48.6095 33.2462C49.4637 34.6898 49.4586 36.5436 49.4586 36.5436C49.4586 36.5436 49.7936 36.4261 50.2371 36.4261C51.6311 36.4262 51.918 37.6777 50.8628 38.948C50.8563 38.9608 50.8441 39.0062 50.8242 39.0807ZM16.1713 32.276C16.1713 32.276 15.9977 32.9971 15.6533 33.8757C15.3227 31.0636 14.1469 30.4686 14.1469 30.4687C13.4657 30.1519 12.7126 29.976 11.9208 29.976C8.8657 29.976 6.38916 32.593 6.38916 35.8215C6.38916 39.0498 8.8657 41.6668 11.9208 41.6668C15.3617 41.6668 17.9736 38.3782 17.3657 34.7856C17.3657 34.7856 17.0148 35.6077 16.688 36.0442C16.7671 34.7581 16.5655 33.4857 16.1713 32.276Z" fill="#F2D8B4"/>
<path d="M4.64035 31.1107C4.61829 31.105 2.53903 29.6251 2.24324 29.1377C0.493787 26.2745 3.53743 20.3933 5.70336 17.0503C11.0559 8.78848 19.9652 2.2683 24.0117 3.19943L28.1671 5.27978C26.5536 6.20027 24.9931 7.33089 24.0583 8.08285L23.1741 8.80202C23.1741 8.80202 20.5919 10.4881 19.3077 11.551C14.1595 15.8116 9.09056 22.4072 7.21078 28.7738C7.21078 28.7736 5.66624 29.5173 4.64035 31.1107Z" fill="#207EAC"/>
<path d="M25.0558 3.20696C20.9311 2.19676 11.8499 9.2705 6.3939 18.234C6.39232 18.2366 6.39074 18.2393 6.38916 18.2419L6.41119 18.2443L10.7586 21.7774C15.532 13.9557 21.5314 9.92259 21.7006 9.80412L21.0113 5.01677L22.3026 4.37856L24.8941 5.24486L24.6958 4.35115L25.0558 3.20696Z" fill="#4FB1D3"/>
<path d="M31.2777 4.3726L26.557 7.53501L26.2267 7.78118L22.0405 4.5237L21.9443 3.90766L23.3998 3.24397C23.4746 3.26701 26.2057 4.10933 26.3209 4.14486L26.3696 2.41765L26.5033 2.0256L27.782 1.55896C27.7838 1.56017 31.2728 4.3686 31.2777 4.3726Z" fill="#FACD55"/>
<path d="M36.4691 1.55896C33.8023 1.55896 30.8083 3.03787 28.5115 4.4919C28.1893 4.69178 27.8697 4.90096 27.5565 5.11415L26.3548 4.05199L26.7912 5.65142C26.6262 5.77092 26.4652 5.89007 26.3075 6.00854L23.8243 5.2091L25.4674 6.65923C25.0922 6.959 24.7571 7.23963 24.4791 7.48263L20.539 4.05233L20.7476 5.58973L23.6113 8.25007C23.6113 8.25007 21.077 10.0489 19.8166 11.1831C14.7641 15.7288 9.78922 22.7661 7.94434 29.559L8.04919 29.4968C8.06343 29.4884 8.07779 29.4816 8.09204 29.4733C8.14338 29.4442 8.1945 29.4164 8.24583 29.3891C8.27879 29.3717 8.31153 29.354 8.34448 29.3374C8.39724 29.3107 8.4501 29.2858 8.50296 29.2613C8.53406 29.2467 8.56539 29.2314 8.5966 29.2178C8.65381 29.1924 8.71092 29.1695 8.76813 29.1467C8.79456 29.1361 8.82099 29.1246 8.84742 29.1147C8.93073 29.0832 9.01372 29.0541 9.09649 29.0281C10.3508 28.6336 12.0572 28.3799 14.0548 29.2743C15.0579 26.6065 16.2564 23.8923 18.1451 21.2842C19.6766 19.1695 21.1486 17.2817 22.9155 16.2434C26.2609 12.9298 35.2777 9.41613 38.1664 12.4618C38.8494 11.2837 39.4422 10.1684 39.9306 8.77037C41.1359 5.4083 41.1579 1.55896 36.4691 1.55896Z" fill="#070A11"/>
<path d="M26.6117 4.66627L25.6322 3.11072L25.0562 3.88569L25.4009 4.49488L26.6117 4.66627Z" fill="#070A11"/>
<path fill-rule="evenodd" clip-rule="evenodd" d="M35.6705 1.55896C34.2062 1.71252 32.6795 2.24527 31.2551 2.91956C26.4467 5.23517 23.0906 8.65102 22.6881 9.06071C22.6708 9.07831 22.659 9.09036 22.6527 9.09654C22.2533 9.48993 21.8552 9.89741 21.4603 10.3168C20.2853 11.5641 19.1375 12.915 18.0618 14.3041C16.1599 16.7601 15.3685 17.9062 14.167 20.2408C14.1668 20.2411 14.175 20.231 14.1911 20.2112C14.6256 19.6771 20.7941 12.0936 22.3726 10.4859C25.3765 7.4262 30.2934 4.0187 30.3445 3.98834C32.4441 2.66913 34.2162 1.89491 35.6705 1.55896ZM47.5614 32.3555C48.389 33.7863 48.384 35.6235 48.384 35.6235C48.3982 36.1508 48.3813 36.4417 48.3526 36.8495C46.6742 38.3046 41.67 42.169 35.7075 41.9972C35.7075 41.9972 34.9202 41.9806 34.179 41.8034C33.2069 41.5712 32.467 41.1335 32.1793 40.1446L32.1747 40.1286L32.1742 40.1274C32.1697 40.1172 32.1327 40.0281 32.1089 39.8362L32.1079 39.8287L32.1072 39.8214C32.1018 39.7736 32.0973 39.7227 32.0941 39.6696L32.0931 39.6511L32.0928 39.645C32.0886 39.5601 32.0875 39.4629 32.091 39.3525C32.0925 39.3138 32.0948 39.2752 32.0979 39.2366L32.0984 39.2367L32.0988 39.2245C32.1089 39.1052 32.1266 38.9887 32.1541 38.8846C32.4598 37.834 32.9718 37.8248 33.7639 37.8106C33.8824 37.8085 34.0072 37.8063 34.1386 37.8004H34.1387C37.742 37.6772 40.6497 36.7468 42.8287 35.6846C45.1524 34.5518 46.9233 33.0923 47.5614 32.3555Z" fill="#FFFFFE"/>
<path fill-rule="evenodd" clip-rule="evenodd" d="M41.4012 23.1162C41.6627 25.9028 41.7247 26.5645 42.2771 26.9572C42.2923 26.9721 42.3078 26.9848 42.3234 26.9951C41.9526 27.1033 41.6207 27.205 41.3264 27.298C40.7842 26.5629 40.0312 25.8756 38.4834 25.9873C36.4321 26.1634 34.802 27.9972 35.0971 29.8183C34.1224 30.31 33.2145 30.8199 32.3702 31.3391C30.977 31.4884 29.2799 31.9694 27.7831 33.2226C26.6549 32.8673 25.355 31.8488 25.3527 31.8469C25.3527 31.8469 25.8697 31.8808 26.2289 31.7991C26.2289 31.7991 26.2041 31.7813 26.1591 31.7469C26.1572 31.7444 26.1549 31.742 26.1522 31.7399C26.1215 31.7159 26.0903 31.6921 26.0586 31.668C25.522 31.2366 23.8813 29.7678 23.5479 27.7027C23.8783 28.1073 24.5718 28.5643 24.5718 28.5643C24.5634 28.5405 24.5554 28.5155 24.5473 28.4896C24.5482 28.4869 24.5488 28.484 24.549 28.4811L24.5492 28.4777C24.5492 28.4777 24.4529 28.2032 24.3854 27.6742C24.3668 27.5255 24.3516 27.3672 24.3401 27.2014C24.3328 27.0896 24.3272 26.971 24.3239 26.8452C24.4088 25.8013 24.675 24.9242 25.3382 24.0944C26.3052 22.8847 27.6321 22.3931 29.163 22.4167C29.5845 22.422 30.0103 22.4655 30.4542 22.5109C30.8803 22.5544 31.3231 22.5997 31.7946 22.6144C33.1094 22.6555 34.376 22.4388 35.7087 21.8412C37.0255 21.2194 37.77 20.5018 38.5492 19.3875C38.8237 19.087 39.308 18.6473 39.7364 18.666C40.0205 18.666 40.2176 18.8055 40.3579 18.9269C41.036 19.8341 41.2237 21.2462 41.3284 22.3441C41.3544 22.6182 41.3785 22.8751 41.4012 23.1162ZM37.397 28.4921C37.7134 27.4816 39.1489 26.9956 40.0155 27.6062C39.6283 27.8294 39.509 28.4764 39.7452 28.8518C39.2554 28.8428 38.7519 29.0345 38.3978 29.3741C38.4307 28.8931 37.8985 28.5172 37.397 28.4921ZM42.6321 48.2224C43.4068 47.8186 44.1658 47.337 44.8937 46.7703C48.7476 43.7704 49.7108 40.2131 49.9075 39.4866C49.9273 39.4137 49.9393 39.3693 49.9457 39.3568C48.1616 41.6423 45.8277 43.4586 43.3303 44.7159C41.2769 45.7504 39.7407 46.1103 39.7407 46.1103C39.7407 46.1103 40.8403 47.5477 42.6321 48.2224ZM30.9233 39.9371C31.1963 38.9305 31.9673 38.133 33.149 38.0975L33.2216 38.0958C33.3749 38.0922 33.7322 38.084 33.9139 38.0794C39.5925 37.9065 44.6878 35.8395 48.336 31.5233C48.8376 30.9058 48.2773 30.0578 47.1901 30.032L47.1818 30.0319L47.1745 30.032C47.0805 30.1305 47.026 30.2706 46.9544 30.4543C46.8861 30.6298 46.8022 30.8452 46.6536 31.1021C45.5439 33.0121 44.0091 33.8856 41.9624 34.8989C38.6355 36.5399 36.1577 36.906 34.3693 37.1702C32.7847 37.4043 31.7413 37.5585 31.1278 38.4487C30.7483 39.0064 30.7411 39.6293 30.9233 39.9371ZM43.018 39.224C43.0024 39.2243 42.9862 39.2278 42.9604 39.2335C42.8794 39.252 42.6999 39.3101 42.4399 39.3942C40.7132 39.9526 35.438 41.6585 31.9345 40.5683C31.9164 40.7868 31.9223 41.246 32.0126 41.4455L32.013 41.4467C32.6228 41.5678 33.3945 41.6452 34.2902 41.6452C39.5946 41.6452 43.4173 39.2558 43.018 39.224ZM13.3464 38.7317L13.3418 38.7348C10.8492 38.9169 8.54442 35.761 9.90519 34.0208C10.0915 33.8818 10.251 33.8019 10.314 33.7703C10.3251 33.7648 10.3332 33.7607 10.3379 33.7581C10.3743 33.739 10.4116 33.7234 10.4503 33.7072C10.4771 33.696 10.5046 33.6846 10.533 33.6714C10.5602 33.6601 10.5916 33.6506 10.6261 33.641C10.7367 33.6101 10.7604 33.6014 10.7847 33.5945C10.8089 33.5876 10.8336 33.5825 10.9453 33.5591H10.9451C12.1556 33.305 13.0096 33.8357 13.3814 34.3576C13.5527 34.5977 13.5895 34.7783 13.6162 34.9093C13.6249 34.9518 13.6325 34.9892 13.6433 35.0216L13.6435 35.0232C13.3537 34.6226 12.9793 34.5348 12.9793 34.5348C12.6638 34.4103 12.0574 34.6005 12.0178 35.277C11.9995 35.5372 12.0778 35.8288 12.3025 36.0851L12.3041 36.087C12.3121 36.096 12.3203 36.1052 12.3288 36.1142C12.3365 36.1226 12.3444 36.1309 12.3523 36.1389C12.5365 36.328 12.7554 36.4656 12.9644 36.597C13.3231 36.8225 13.6528 37.0297 13.7281 37.4475C13.8048 37.9072 13.6693 38.3877 13.3464 38.7317Z" fill="#E2B986"/>
<path fill-rule="evenodd" clip-rule="evenodd" d="M38.0061 12.153C36.0002 10.5846 30.1451 11.0287 24.2835 14.8921C21.5997 16.6609 19.6317 18.5956 18.1147 20.6057C18.1147 20.6057 20.4564 16.0791 25.6018 13.0851C25.2431 13.0265 24.3996 13.1291 24.1577 13.1585C24.1411 13.1605 24.1274 13.1622 24.1168 13.1635C25.0515 12.3459 26.7881 11.8001 27.988 11.552C27.6368 11.3248 26.8004 11.2674 26.3852 11.2562C26.272 11.2532 26.2644 11.2535 26.15 11.2584C26.1404 11.2588 26.13 11.2592 26.1188 11.2597C27.2474 10.618 29.3401 10.2414 31.2424 10.5816C31.0034 10.2589 30.4611 10.0234 30.0811 9.90891C30.0479 9.8988 29.8987 9.86111 29.8987 9.86111C29.8987 9.86111 30.0258 9.83056 30.0419 9.82738C31.1879 9.60299 32.5266 9.84529 33.5856 10.2777C33.4654 9.99385 33.1714 9.66332 32.9505 9.4541C32.928 9.43267 32.796 9.3363 32.796 9.3363C33.904 9.56981 34.9657 10.0612 35.7646 10.6192C35.656 10.4058 35.3873 10.0467 35.2016 9.85056C36.2603 10.1586 37.4487 10.9262 37.958 12.0267C37.9706 12.0515 38.0028 12.1421 38.0064 12.1523L38.0061 12.153ZM33.3077 26.8408C33.422 27.0108 33.4526 27.1391 33.4065 27.1925C33.3236 27.291 33.0487 27.1811 32.6402 27.0178L32.6402 27.0177C32.5949 26.9996 32.5479 26.9809 32.4994 26.9616C31.2558 26.4899 30.3396 26.418 28.7177 27.0423L28.5881 27.0928C28.2461 27.2264 28.0016 27.322 27.8773 27.3032C27.6498 27.2688 27.87 26.8454 28.3671 26.4346C29.3673 25.6232 30.741 25.3714 31.9149 25.8157C32.4287 26.008 33.0058 26.3918 33.3077 26.8408ZM33.061 28.1348C32.7201 27.8699 32.0922 27.6924 31.4404 27.805C31.3385 27.8208 31.2425 27.8487 31.1488 27.8759C31.1166 27.8853 31.0847 27.8946 31.0529 27.9032C31.0073 27.9147 30.9637 27.931 30.9213 27.9492C30.6517 28.0646 30.4184 28.189 30.192 28.4097C29.9323 28.6649 29.8585 28.902 29.9336 28.9603C29.9979 29.0125 30.1426 28.9519 30.3625 28.8599L30.3975 28.8452L30.465 28.8172C31.3958 28.4238 32.0545 28.4133 32.682 28.4578L32.7267 28.4609C33.0046 28.4801 33.1896 28.4928 33.2342 28.4132C33.2674 28.3563 33.2072 28.2482 33.061 28.1348ZM13.0173 32.9902L13.0171 32.99C12.5084 32.5728 11.7875 32.3754 10.9498 32.5559H10.95L10.9347 32.5592C10.8365 32.5804 10.8131 32.5854 10.7902 32.5921C10.783 32.5942 10.7758 32.5965 10.7664 32.5995L10.7664 32.5995L10.7663 32.5995C10.7441 32.6065 10.7095 32.6175 10.6323 32.6397C10.5978 32.6494 10.5666 32.6592 10.5396 32.6706C10.5115 32.684 10.4842 32.6957 10.4577 32.7071C10.419 32.7237 10.3817 32.7396 10.3454 32.7593C10.3407 32.762 10.3327 32.7661 10.3219 32.7716C10.2146 32.8267 9.82435 33.027 9.50119 33.4291C9.3285 33.6469 9.1958 33.8891 9.09898 34.1383C8.92403 34.5986 8.85865 35.103 8.87734 35.5877C8.90302 36.2494 9.07615 36.6466 9.14093 36.7952C9.14866 36.8129 9.15485 36.8271 9.15906 36.8378C9.3245 37.1992 8.93699 37.2735 8.58352 36.885L8.58266 36.8842C8.29986 36.5798 8.11875 36.1162 8.03014 35.7044V35.7042C7.97784 35.4595 7.94434 35.1849 7.94434 34.8894C7.94434 34.5467 7.98951 34.1757 8.10286 33.7915L8.10297 33.7909L8.10308 33.7906C8.40965 32.7812 9.09866 32.0189 10.1457 31.6038C10.2122 31.5772 10.2861 31.5575 10.3554 31.5391C10.3868 31.5308 10.4172 31.5227 10.4455 31.5143L10.4446 31.5145C10.6209 31.461 11.2524 31.331 11.8944 31.4326C12.266 31.4911 12.6039 31.6162 12.8951 31.7811C13.1858 31.9457 13.4302 32.1501 13.6159 32.3694L13.6166 32.3704C13.9201 32.7212 14.149 33.2162 14.1083 33.6567L14.1082 33.6578C14.093 33.841 14.0132 34.1035 13.8509 34.1717C13.7905 34.1967 13.73 34.1834 13.6876 34.1411C13.6401 34.0938 13.6267 34.0264 13.6087 33.9355C13.5821 33.8017 13.5455 33.6172 13.3749 33.3717C13.2876 33.2458 13.1704 33.1139 13.0176 32.9904L13.0173 32.9902ZM12.8384 34.6346C12.7227 34.5414 12.669 34.4619 12.637 34.3394C12.5898 34.1164 12.6144 33.9868 12.8019 33.8529C12.8426 33.8246 12.881 33.8004 12.9152 33.7788C13.0025 33.7239 13.0626 33.6861 13.0629 33.6407C13.0694 33.5211 12.5864 33.3981 12.2487 33.7361C11.9684 34.0398 11.8799 34.6729 12.3272 35.1664C12.5155 35.373 12.7433 35.5199 12.9603 35.6599C13.3173 35.8901 13.6451 36.1014 13.7201 36.5287C13.736 36.626 13.7478 36.7344 13.7395 36.8414C13.741 36.9512 13.7089 37.1042 13.7006 37.1433L13.6988 37.1522C13.5491 37.8158 12.9297 38.4489 11.9086 38.2876L11.8642 38.2809C11.7013 38.2564 11.5956 38.2404 11.5622 38.289C11.4834 38.4004 11.9211 38.9096 12.7223 38.8912C13.5062 38.8743 14.2838 38.2775 14.5331 37.3805L14.5348 37.374C14.5464 37.3314 14.6099 37.0977 14.6155 36.8867C14.6296 36.7179 14.6176 36.5443 14.5867 36.3626C14.4341 35.5024 13.7677 35.1527 13.2658 34.8892C13.0956 34.8 12.9444 34.7206 12.8384 34.6346ZM39.4765 27.1055C39.5429 26.6736 39.8476 26.3633 40.1574 26.4124C40.4671 26.4616 40.6646 26.8516 40.5983 27.2835C40.532 27.7155 40.2271 28.0258 39.9174 27.9767C39.6076 27.9275 39.4102 27.5375 39.4765 27.1055ZM36.7538 27.6728C36.5835 27.9887 36.7908 28.4374 37.2169 28.6747C37.6429 28.9122 38.1264 28.8486 38.2967 28.5325C38.4669 28.2166 38.2596 27.768 37.8334 27.5306C37.4073 27.2933 36.924 27.3569 36.7538 27.6728Z" fill="#916D53"/>
<path d="M37.5015 24.6206C37.4952 24.1928 37.5452 23.486 37.8429 23.3545C37.8432 23.3544 37.843 23.3544 37.8435 23.3542C38.3521 23.1155 39.0256 24.8783 39.0565 26.4435C38.6546 26.1711 38.1823 26.0556 37.6966 26.1126C37.5744 25.6087 37.5159 25.134 37.5015 24.6206Z" fill="#5B453E"/>
</svg>
