<svg width="431" height="26" viewBox="0 0 431 26" fill="none" xmlns="http://www.w3.org/2000/svg">
<path d="M14.6313 11.1193C14.5453 10.8673 14.3179 10.6893 14.0526 10.6686L10.2519 10.3666L8.60728 6.72592C8.49995 6.48659 8.26195 6.33325 7.99995 6.33325C7.73795 6.33325 7.49995 6.48659 7.39261 6.72525L5.74795 10.3666L1.94728 10.6686C1.68661 10.6893 1.46195 10.8606 1.37328 11.1066C1.28461 11.3526 1.34728 11.6279 1.53461 11.8106L4.34328 14.5486L3.34995 18.8499C3.28861 19.1159 3.39595 19.3926 3.62061 19.5479C3.73528 19.6266 3.86728 19.6666 3.99995 19.6666C4.12861 19.6666 4.25795 19.6293 4.36995 19.5546L7.99995 17.1346L11.6299 19.5546C11.8619 19.7093 12.1666 19.7033 12.3933 19.5386C12.6186 19.3739 12.7179 19.0853 12.6413 18.8173L11.4219 14.5506L14.4459 11.8293C14.6439 11.6506 14.7166 11.3719 14.6313 11.1193Z" fill="#FFBA08"/>
<path d="M32.6313 11.1193C32.5453 10.8673 32.3179 10.6893 32.0526 10.6686L28.2519 10.3666L26.6073 6.72592C26.4999 6.48659 26.2619 6.33325 25.9999 6.33325C25.7379 6.33325 25.4999 6.48659 25.3926 6.72525L23.7479 10.3666L19.9473 10.6686C19.6866 10.6893 19.4619 10.8606 19.3733 11.1066C19.2846 11.3526 19.3473 11.6279 19.5346 11.8106L22.3433 14.5486L21.3499 18.8499C21.2886 19.1159 21.3959 19.3926 21.6206 19.5479C21.7353 19.6266 21.8673 19.6666 21.9999 19.6666C22.1286 19.6666 22.2579 19.6293 22.3699 19.5546L25.9999 17.1346L29.6299 19.5546C29.8619 19.7093 30.1666 19.7033 30.3933 19.5386C30.6186 19.3739 30.7179 19.0853 30.6413 18.8173L29.4219 14.5506L32.4459 11.8293C32.6439 11.6506 32.7166 11.3719 32.6313 11.1193Z" fill="#FFBA08"/>
<path d="M50.6313 11.1193C50.5453 10.8673 50.3179 10.6893 50.0526 10.6686L46.2519 10.3666L44.6073 6.72592C44.4999 6.48659 44.2619 6.33325 43.9999 6.33325C43.7379 6.33325 43.4999 6.48659 43.3926 6.72525L41.7479 10.3666L37.9473 10.6686C37.6866 10.6893 37.4619 10.8606 37.3733 11.1066C37.2846 11.3526 37.3473 11.6279 37.5346 11.8106L40.3433 14.5486L39.3499 18.8499C39.2886 19.1159 39.3959 19.3926 39.6206 19.5479C39.7353 19.6266 39.8673 19.6666 39.9999 19.6666C40.1286 19.6666 40.2579 19.6293 40.3699 19.5546L43.9999 17.1346L47.6299 19.5546C47.8619 19.7093 48.1666 19.7033 48.3933 19.5386C48.6186 19.3739 48.7179 19.0853 48.6413 18.8173L47.4219 14.5506L50.4459 11.8293C50.6439 11.6506 50.7166 11.3719 50.6313 11.1193Z" fill="#FFBA08"/>
<path d="M68.6313 11.1193C68.5453 10.8673 68.3179 10.6893 68.0526 10.6686L64.2519 10.3666L62.6073 6.72592C62.4999 6.48659 62.2619 6.33325 61.9999 6.33325C61.7379 6.33325 61.4999 6.48659 61.3926 6.72525L59.7479 10.3666L55.9473 10.6686C55.6866 10.6893 55.4619 10.8606 55.3733 11.1066C55.2846 11.3526 55.3473 11.6279 55.5346 11.8106L58.3433 14.5486L57.3499 18.8499C57.2886 19.1159 57.3959 19.3926 57.6206 19.5479C57.7353 19.6266 57.8673 19.6666 57.9999 19.6666C58.1286 19.6666 58.2579 19.6293 58.3699 19.5546L61.9999 17.1346L65.6299 19.5546C65.8619 19.7093 66.1666 19.7033 66.3933 19.5386C66.6186 19.3739 66.7179 19.0853 66.6413 18.8173L65.4219 14.5506L68.4459 11.8293C68.6439 11.6506 68.7166 11.3719 68.6313 11.1193Z" fill="#FFBA08"/>
<path opacity="0.5" d="M76.344 14.5486L75.3507 18.8499C75.2893 19.1159 75.396 19.3926 75.6213 19.5479C75.7353 19.6266 75.8673 19.6666 76 19.6666C76.1287 19.6666 76.258 19.6293 76.37 19.5546L80 17.1346L83.63 19.5546C83.862 19.7093 84.1667 19.7033 84.3933 19.5386C84.6187 19.3739 84.718 19.0853 84.6413 18.8173L83.422 14.5506L86.446 11.8293C86.644 11.6506 86.7167 11.3719 86.6313 11.1199C86.5453 10.8679 86.318 10.6906 86.0527 10.6693L82.252 10.3666L80.6073 6.72592C80.5 6.48659 80.262 6.33325 80 6.33325C79.738 6.33325 79.5 6.48659 79.3927 6.72592L77.748 10.3666L73.9473 10.6686C73.686 10.6893 73.4613 10.8606 73.3733 11.1066C73.284 11.3526 73.348 11.6279 73.5347 11.8106L76.344 14.5486ZM78.246 11.6646C78.488 11.6453 78.7013 11.4959 78.8007 11.2739L80 8.61992L81.1993 11.2739C81.2987 11.4959 81.512 11.6453 81.754 11.6646L84.402 11.8746L82.2213 13.8373C82.032 14.0079 81.9567 14.2706 82.026 14.5159L82.8613 17.4393L80.3707 15.7786C80.1467 15.6286 79.8553 15.6286 79.6313 15.7786L77.0287 17.5139L77.7287 14.4833C77.7807 14.2566 77.7113 14.0186 77.5447 13.8566L75.5193 11.8819L78.246 11.6646Z" fill="white"/>
<path opacity="0.7" d="M97.256 21.392C96.6267 20.672 96.0853 19.8693 95.632 18.984C95.184 18.0933 94.8373 17.16 94.592 16.184C94.352 15.208 94.2347 14.2267 94.24 13.24C94.2347 12.2533 94.352 11.272 94.592 10.296C94.8373 9.31467 95.184 8.38133 95.632 7.496C96.0853 6.61067 96.6267 5.808 97.256 5.088L98.12 5.76C97.5013 6.50133 96.984 7.28 96.568 8.096C96.152 8.90667 95.84 9.744 95.632 10.608C95.4293 11.472 95.3253 12.3493 95.32 13.24C95.3253 14.12 95.432 14.9973 95.64 15.872C95.8533 16.7413 96.1653 17.5867 96.576 18.408C96.992 19.224 97.5067 19.9893 98.12 20.704L97.256 21.392ZM101.941 19V8.792L99.7725 10.096V8.776L101.941 7.48H103.133V19H101.941ZM105.75 19V17.632H107.118V19H105.75ZM109.269 18.992L109.277 17.92L114.485 13.216C114.933 12.8107 115.229 12.4267 115.373 12.064C115.522 11.696 115.597 11.312 115.597 10.912C115.597 10.4373 115.485 10.008 115.261 9.624C115.037 9.24 114.735 8.936 114.357 8.712C113.978 8.48267 113.554 8.368 113.085 8.368C112.594 8.368 112.157 8.48533 111.773 8.72C111.389 8.95467 111.085 9.264 110.861 9.648C110.642 10.032 110.535 10.4507 110.541 10.904H109.341C109.341 10.2053 109.506 9.57867 109.837 9.024C110.167 8.46933 110.615 8.03467 111.181 7.72C111.746 7.4 112.386 7.24 113.101 7.24C113.799 7.24 114.426 7.40533 114.981 7.736C115.541 8.06133 115.981 8.504 116.301 9.064C116.626 9.61867 116.789 10.2373 116.789 10.92C116.789 11.4 116.73 11.824 116.613 12.192C116.501 12.5547 116.322 12.8933 116.077 13.208C115.837 13.5173 115.53 13.8373 115.157 14.168L110.533 18.344L110.349 17.864H116.789V18.992H109.269ZM118.714 19V7.48H119.89V12.92L125.146 7.48H126.65L121.282 13.04L127.09 19H125.554L119.89 13.24V19H118.714ZM131.104 19V10.36H132.16V12.44L131.952 12.168C132.048 11.912 132.174 11.6773 132.328 11.464C132.483 11.2453 132.651 11.0667 132.832 10.928C133.056 10.7307 133.318 10.5813 133.616 10.48C133.915 10.3733 134.216 10.312 134.52 10.296C134.824 10.2747 135.102 10.296 135.352 10.36V11.464C135.038 11.384 134.694 11.3653 134.32 11.408C133.947 11.4507 133.603 11.6 133.288 11.856C133 12.08 132.784 12.3493 132.64 12.664C132.496 12.9733 132.4 13.304 132.352 13.656C132.304 14.0027 132.28 14.3467 132.28 14.688V19H131.104ZM140.37 19.24C139.527 19.24 138.796 19.0533 138.178 18.68C137.564 18.3067 137.087 17.7813 136.746 17.104C136.404 16.4267 136.234 15.632 136.234 14.72C136.234 13.776 136.402 12.96 136.738 12.272C137.074 11.584 137.546 11.0533 138.154 10.68C138.767 10.3067 139.49 10.12 140.322 10.12C141.175 10.12 141.903 10.3173 142.506 10.712C143.108 11.1013 143.564 11.6613 143.874 12.392C144.183 13.1227 144.324 13.9947 144.298 15.008H143.098V14.592C143.076 13.472 142.834 12.6267 142.37 12.056C141.911 11.4853 141.239 11.2 140.354 11.2C139.426 11.2 138.714 11.5013 138.218 12.104C137.727 12.7067 137.482 13.5653 137.482 14.68C137.482 15.768 137.727 16.6133 138.218 17.216C138.714 17.8133 139.415 18.112 140.322 18.112C140.94 18.112 141.479 17.9707 141.938 17.688C142.402 17.4 142.767 16.9867 143.034 16.448L144.13 16.872C143.788 17.624 143.284 18.208 142.618 18.624C141.956 19.0347 141.207 19.24 140.37 19.24ZM137.066 15.008V14.024H143.666V15.008H137.066ZM148.097 19L144.961 10.36H146.153L148.705 17.464L151.241 10.36H152.449L149.313 19H148.097ZM154.046 8.72V7.4H155.222V8.72H154.046ZM154.046 19V10.36H155.222V19H154.046ZM161.276 19.24C160.433 19.24 159.703 19.0533 159.084 18.68C158.471 18.3067 157.993 17.7813 157.652 17.104C157.311 16.4267 157.14 15.632 157.14 14.72C157.14 13.776 157.308 12.96 157.644 12.272C157.98 11.584 158.452 11.0533 159.06 10.68C159.673 10.3067 160.396 10.12 161.228 10.12C162.081 10.12 162.809 10.3173 163.412 10.712C164.015 11.1013 164.471 11.6613 164.78 12.392C165.089 13.1227 165.231 13.9947 165.204 15.008H164.004V14.592C163.983 13.472 163.74 12.6267 163.276 12.056C162.817 11.4853 162.145 11.2 161.26 11.2C160.332 11.2 159.62 11.5013 159.124 12.104C158.633 12.7067 158.388 13.5653 158.388 14.68C158.388 15.768 158.633 16.6133 159.124 17.216C159.62 17.8133 160.321 18.112 161.228 18.112C161.847 18.112 162.385 17.9707 162.844 17.688C163.308 17.4 163.673 16.9867 163.94 16.448L165.036 16.872C164.695 17.624 164.191 18.208 163.524 18.624C162.863 19.0347 162.113 19.24 161.276 19.24ZM157.972 15.008V14.024H164.572V15.008H157.972ZM168.507 19L165.867 10.352L167.043 10.36L169.091 17.072L171.147 10.36H172.219L174.275 17.072L176.339 10.36H177.507L174.867 19H173.843L171.683 12.12L169.531 19H168.507ZM181.86 19.232C180.846 19.232 180.012 19.0133 179.356 18.576C178.705 18.1387 178.305 17.5307 178.156 16.752L179.356 16.552C179.484 17.0427 179.774 17.4347 180.228 17.728C180.686 18.016 181.252 18.16 181.924 18.16C182.58 18.16 183.097 18.024 183.476 17.752C183.854 17.4747 184.044 17.0987 184.044 16.624C184.044 16.3573 183.982 16.1413 183.86 15.976C183.742 15.8053 183.5 15.648 183.132 15.504C182.764 15.36 182.214 15.1893 181.484 14.992C180.7 14.7787 180.086 14.5653 179.644 14.352C179.201 14.1387 178.886 13.8933 178.7 13.616C178.513 13.3333 178.42 12.9893 178.42 12.584C178.42 12.0933 178.558 11.664 178.836 11.296C179.113 10.9227 179.497 10.6347 179.988 10.432C180.478 10.224 181.049 10.12 181.7 10.12C182.35 10.12 182.932 10.2267 183.444 10.44C183.961 10.648 184.377 10.9413 184.692 11.32C185.006 11.6987 185.193 12.1387 185.252 12.64L184.052 12.856C183.972 12.3493 183.718 11.9493 183.292 11.656C182.87 11.3573 182.334 11.2027 181.684 11.192C181.07 11.176 180.572 11.2933 180.188 11.544C179.804 11.7893 179.612 12.1173 179.612 12.528C179.612 12.7573 179.681 12.9547 179.82 13.12C179.958 13.28 180.209 13.432 180.572 13.576C180.94 13.72 181.462 13.8773 182.14 14.048C182.934 14.2507 183.558 14.464 184.012 14.688C184.465 14.912 184.788 15.176 184.98 15.48C185.172 15.784 185.268 16.16 185.268 16.608C185.268 17.424 184.964 18.0667 184.356 18.536C183.753 19 182.921 19.232 181.86 19.232ZM187.06 21.872L186.196 21.184C186.809 20.4693 187.321 19.704 187.732 18.888C188.148 18.0667 188.46 17.2213 188.668 16.352C188.881 15.4773 188.991 14.6 188.996 13.72C188.991 12.8293 188.884 11.952 188.676 11.088C188.473 10.224 188.164 9.38667 187.748 8.576C187.332 7.76 186.815 6.98133 186.196 6.24L187.06 5.568C187.689 6.288 188.228 7.09067 188.676 7.976C189.129 8.86133 189.476 9.79467 189.716 10.776C189.961 11.752 190.081 12.7333 190.076 13.72C190.081 14.7067 189.961 15.688 189.716 16.664C189.476 17.64 189.129 18.5707 188.676 19.456C188.228 20.3467 187.689 21.152 187.06 21.872Z" fill="white"/>
<line opacity="0.15" x1="209.5" y1="3" x2="209.5" y2="23" stroke="white"/>
<g opacity="0.7">
<path d="M241.667 9.66675H236.99L237.926 6.86091C238.094 6.35425 238.009 5.79258 237.697 5.35925C237.384 4.92591 236.877 4.66675 236.343 4.66675H235C234.752 4.66675 234.518 4.77675 234.359 4.96675L230.442 9.66675H228.333C227.414 9.66675 226.667 10.4142 226.667 11.3334V18.8334C226.667 19.7526 227.414 20.5001 228.333 20.5001H230.833H239.422C240.113 20.5001 240.74 20.0659 240.983 19.4184L243.281 13.2926C243.316 13.1992 243.333 13.1001 243.333 13.0001V11.3334C243.333 10.4142 242.586 9.66675 241.667 9.66675ZM228.333 11.3334H230V18.8334H228.333V11.3334ZM241.667 12.8492L239.422 18.8334H231.667V10.8017L235.39 6.33341H236.345L235.043 10.2359C234.957 10.4901 235.001 10.7692 235.157 10.9867C235.314 11.2051 235.566 11.3334 235.833 11.3334H241.667V12.8492Z" fill="white"/>
</g>
<path opacity="0.7" d="M253.52 19.24C254.235 19.24 254.888 19.0667 255.48 18.72C256.072 18.368 256.547 17.8987 256.904 17.312C257.261 16.7253 257.44 16.08 257.44 15.376C257.44 14.6667 257.272 14.024 256.936 13.448C256.6 12.872 256.147 12.416 255.576 12.08C255.005 11.7387 254.365 11.568 253.656 11.568C253.224 11.568 252.805 11.6453 252.4 11.8C251.995 11.9493 251.635 12.1627 251.32 12.44L251.552 8.608H256.632V7.48H250.48L250.128 13.472L251.2 13.92C251.435 13.5573 251.749 13.2587 252.144 13.024C252.539 12.7893 253.008 12.672 253.552 12.672C254.037 12.672 254.485 12.792 254.896 13.032C255.307 13.272 255.637 13.5973 255.888 14.008C256.139 14.4133 256.264 14.8693 256.264 15.376C256.264 15.8667 256.144 16.3173 255.904 16.728C255.664 17.1387 255.339 17.4693 254.928 17.72C254.523 17.9653 254.064 18.088 253.552 18.088C252.96 18.088 252.413 17.9067 251.912 17.544C251.411 17.1813 251.083 16.688 250.928 16.064L249.8 16.368C249.955 16.928 250.211 17.424 250.568 17.856C250.925 18.288 251.357 18.6267 251.864 18.872C252.371 19.1173 252.923 19.24 253.52 19.24ZM259.354 19H260.53V13.24L266.194 19H267.73L261.922 13.04L267.29 7.48H265.786L260.53 12.92V7.48H259.354V19ZM271.905 19H273.081V7.24H271.905V19ZM275.639 8.72H276.815V7.4H275.639V8.72ZM275.639 19H276.815V10.36H275.639V19ZM279.206 19H280.398V14.84L284.638 19H286.35L281.774 14.68L285.822 10.36H284.254L280.398 14.52V7.48H279.214L279.206 19ZM290.651 19.24C291.488 19.24 292.238 19.0347 292.899 18.624C293.566 18.2133 294.07 17.6293 294.411 16.872L293.315 16.448C292.766 17.5573 291.862 18.112 290.603 18.112C289.739 18.112 289.062 17.8427 288.571 17.304C288.086 16.7653 287.819 16 287.771 15.008H294.579C294.622 13.4827 294.288 12.288 293.579 11.424C292.875 10.5547 291.883 10.12 290.603 10.12C289.771 10.12 289.048 10.3067 288.435 10.68C287.827 11.0533 287.355 11.584 287.019 12.272C286.683 12.96 286.515 13.776 286.515 14.72C286.515 15.632 286.683 16.4267 287.019 17.104C287.36 17.7813 287.84 18.3067 288.459 18.68C289.083 19.0533 289.814 19.24 290.651 19.24ZM290.635 11.2C292.262 11.2 293.166 12.1413 293.347 14.024H287.795C287.886 13.112 288.174 12.4133 288.659 11.928C289.144 11.4427 289.803 11.2 290.635 11.2ZM299.578 19.232C300.64 19.232 301.472 19 302.074 18.536C302.682 18.0667 302.986 17.424 302.986 16.608C302.986 16.16 302.89 15.784 302.698 15.48C302.512 15.176 302.189 14.912 301.73 14.688C301.277 14.464 300.653 14.2507 299.858 14.048C299.181 13.8773 298.658 13.72 298.29 13.576C297.928 13.432 297.677 13.28 297.538 13.12C297.4 12.9547 297.33 12.7573 297.33 12.528C297.33 12.1173 297.522 11.7893 297.906 11.544C298.29 11.2987 298.789 11.1813 299.402 11.192C300.053 11.2027 300.589 11.3573 301.01 11.656C301.432 11.9493 301.685 12.3493 301.77 12.856L302.97 12.64C302.912 12.1387 302.725 11.6987 302.41 11.32C302.096 10.9413 301.68 10.648 301.162 10.44C300.65 10.2267 300.069 10.12 299.418 10.12C298.768 10.12 298.194 10.224 297.698 10.432C297.208 10.6347 296.824 10.9227 296.546 11.296C296.274 11.664 296.138 12.0933 296.138 12.584C296.138 12.984 296.229 13.3253 296.41 13.608C296.597 13.8853 296.914 14.1333 297.362 14.352C297.81 14.5653 298.424 14.7787 299.202 14.992C299.933 15.1893 300.48 15.36 300.842 15.504C301.21 15.648 301.456 15.8053 301.578 15.976C301.701 16.1413 301.762 16.3573 301.762 16.624C301.762 17.0933 301.573 17.4667 301.194 17.744C300.816 18.0213 300.298 18.16 299.642 18.16C298.97 18.16 298.405 18.016 297.946 17.728C297.488 17.4347 297.197 17.0427 297.074 16.552L295.874 16.752C296.024 17.5307 296.424 18.1387 297.074 18.576C297.73 19.0133 298.565 19.232 299.578 19.232Z" fill="white"/>
<line opacity="0.15" x1="320.5" y1="3" x2="320.5" y2="23" stroke="white"/>
<g opacity="0.7">
<path d="M346 4.66675C341.405 4.66675 337.667 8.40508 337.667 13.0001C337.667 17.5951 341.405 21.3334 346 21.3334C350.595 21.3334 354.333 17.5951 354.333 13.0001C354.333 8.40508 350.595 4.66675 346 4.66675ZM346 19.6667C342.324 19.6667 339.333 16.6759 339.333 13.0001C339.333 9.32425 342.324 6.33341 346 6.33341C349.676 6.33341 352.667 9.32425 352.667 13.0001C352.667 16.6759 349.676 19.6667 346 19.6667Z" fill="white"/>
<path d="M346.833 8.83325H345.167V13.3449L347.911 16.0891L349.089 14.9108L346.833 12.6549V8.83325Z" fill="white"/>
</g>
<path opacity="0.7" d="M363.128 19H364.32V7.48H363.128L360.96 8.776V10.096L363.128 8.792V19ZM372.426 19H373.61V16.768H374.866V15.648H373.61V12.288H372.426V15.648H368.354L372.21 7.48H370.89L367.034 15.648V16.768H372.426V19ZM380.304 19.24C381.029 19.24 381.669 19.0987 382.224 18.816C382.779 18.528 383.213 18.1227 383.528 17.6C383.843 17.0773 384 16.4667 384 15.768C384 15.144 383.864 14.5787 383.592 14.072C383.32 13.56 382.915 13.1493 382.376 12.84C382.824 12.5733 383.157 12.2213 383.376 11.784C383.6 11.3413 383.712 10.8587 383.712 10.336C383.712 9.696 383.565 9.144 383.272 8.68C382.979 8.216 382.576 7.86133 382.064 7.616C381.552 7.36533 380.965 7.24 380.304 7.24C379.643 7.24 379.056 7.36533 378.544 7.616C378.032 7.86133 377.629 8.216 377.336 8.68C377.048 9.144 376.904 9.696 376.904 10.336C376.904 10.8533 377.016 11.3333 377.24 11.776C377.469 12.2187 377.805 12.5707 378.248 12.832C377.699 13.1467 377.291 13.5573 377.024 14.064C376.763 14.5707 376.632 15.1387 376.632 15.768C376.632 16.4667 376.787 17.0773 377.096 17.6C377.411 18.1227 377.843 18.528 378.392 18.816C378.947 19.0987 379.584 19.24 380.304 19.24ZM380.304 12.288C379.664 12.288 379.144 12.1253 378.744 11.8C378.349 11.4693 378.152 10.9813 378.152 10.336C378.152 9.69067 378.349 9.208 378.744 8.888C379.144 8.56267 379.664 8.4 380.304 8.4C380.944 8.4 381.464 8.56267 381.864 8.888C382.264 9.208 382.464 9.69067 382.464 10.336C382.464 10.9813 382.264 11.4693 381.864 11.8C381.464 12.1253 380.944 12.288 380.304 12.288ZM380.304 18.112C379.579 18.112 378.992 17.912 378.544 17.512C378.096 17.1067 377.872 16.5253 377.872 15.768C377.872 15.0053 378.093 14.424 378.536 14.024C378.979 13.624 379.568 13.424 380.304 13.424C381.04 13.424 381.632 13.624 382.08 14.024C382.528 14.424 382.752 15.0053 382.752 15.768C382.752 16.5253 382.525 17.1067 382.072 17.512C381.624 17.912 381.035 18.112 380.304 18.112ZM389.268 19H390.452V14.392C390.452 13.416 390.671 12.6507 391.108 12.096C391.546 11.5413 392.18 11.264 393.012 11.264C393.615 11.264 394.1 11.4107 394.468 11.704C394.836 11.992 395.103 12.3867 395.268 12.888C395.434 13.3893 395.516 13.9573 395.516 14.592V19H396.7V14.248C396.7 13.7627 396.639 13.2773 396.516 12.792C396.399 12.3067 396.207 11.864 395.94 11.464C395.674 11.064 395.319 10.744 394.876 10.504C394.434 10.264 393.887 10.144 393.236 10.144C392.618 10.144 392.058 10.264 391.556 10.504C391.06 10.7387 390.652 11.0907 390.332 11.56V7.48H389.268V19ZM402.384 19.24C403.238 19.24 403.968 19.048 404.576 18.664C405.19 18.28 405.659 17.7467 405.984 17.064C406.315 16.376 406.48 15.5787 406.48 14.672C406.48 13.7813 406.318 12.9947 405.992 12.312C405.672 11.624 405.206 11.088 404.592 10.704C403.984 10.3147 403.248 10.12 402.384 10.12C401.542 10.12 400.814 10.312 400.2 10.696C399.592 11.0747 399.123 11.6053 398.792 12.288C398.462 12.9707 398.296 13.7653 398.296 14.672C398.296 15.5627 398.456 16.352 398.776 17.04C399.102 17.728 399.568 18.2667 400.176 18.656C400.79 19.0453 401.526 19.24 402.384 19.24ZM402.384 18.112C401.451 18.112 400.744 17.8 400.264 17.176C399.784 16.5467 399.544 15.712 399.544 14.672C399.544 13.664 399.776 12.8427 400.24 12.208C400.704 11.568 401.419 11.248 402.384 11.248C403.339 11.248 404.051 11.56 404.52 12.184C404.995 12.8027 405.232 13.632 405.232 14.672C405.232 15.6907 404.998 16.52 404.528 17.16C404.059 17.7947 403.344 18.112 402.384 18.112ZM411.549 19.216C412.168 19.216 412.725 19.0987 413.221 18.864C413.722 18.624 414.133 18.2693 414.453 17.8V19H415.509V10.36H414.333V14.968C414.333 15.944 414.114 16.7093 413.677 17.264C413.24 17.8187 412.605 18.096 411.773 18.096C411.17 18.096 410.685 17.952 410.317 17.664C409.949 17.3707 409.682 16.9733 409.517 16.472C409.352 15.9707 409.269 15.4027 409.269 14.768V10.36H408.085V15.112C408.085 15.5973 408.144 16.0827 408.261 16.568C408.384 17.0533 408.578 17.496 408.845 17.896C409.112 18.296 409.466 18.616 409.909 18.856C410.357 19.096 410.904 19.216 411.549 19.216ZM417.745 19H418.921V14.688C418.921 14.1707 418.98 13.656 419.097 13.144C419.22 12.6267 419.497 12.1973 419.929 11.856C420.244 11.6 420.585 11.4533 420.953 11.416C421.326 11.3733 421.673 11.3893 421.993 11.464V10.36C421.614 10.264 421.185 10.2613 420.705 10.352C420.225 10.4373 419.814 10.6293 419.473 10.928C419.217 11.12 418.993 11.3867 418.801 11.728V10.36H417.745V19ZM426.422 19.232C427.483 19.232 428.315 19 428.918 18.536C429.526 18.0667 429.83 17.424 429.83 16.608C429.83 16.16 429.734 15.784 429.542 15.48C429.355 15.176 429.033 14.912 428.574 14.688C428.121 14.464 427.497 14.2507 426.702 14.048C426.025 13.8773 425.502 13.72 425.134 13.576C424.771 13.432 424.521 13.28 424.382 13.12C424.243 12.9547 424.174 12.7573 424.174 12.528C424.174 12.1173 424.366 11.7893 424.75 11.544C425.134 11.2987 425.633 11.1813 426.246 11.192C426.897 11.2027 427.433 11.3573 427.854 11.656C428.275 11.9493 428.529 12.3493 428.614 12.856L429.814 12.64C429.755 12.1387 429.569 11.6987 429.254 11.32C428.939 10.9413 428.523 10.648 428.006 10.44C427.494 10.2267 426.913 10.12 426.262 10.12C425.611 10.12 425.038 10.224 424.542 10.432C424.051 10.6347 423.667 10.9227 423.39 11.296C423.118 11.664 422.982 12.0933 422.982 12.584C422.982 12.984 423.073 13.3253 423.254 13.608C423.441 13.8853 423.758 14.1333 424.206 14.352C424.654 14.5653 425.267 14.7787 426.046 14.992C426.777 15.1893 427.323 15.36 427.686 15.504C428.054 15.648 428.299 15.8053 428.422 15.976C428.545 16.1413 428.606 16.3573 428.606 16.624C428.606 17.0933 428.417 17.4667 428.038 17.744C427.659 18.0213 427.142 18.16 426.486 18.16C425.814 18.16 425.249 18.016 424.79 17.728C424.331 17.4347 424.041 17.0427 423.918 16.552L422.718 16.752C422.867 17.5307 423.267 18.1387 423.918 18.576C424.574 19.0133 425.409 19.232 426.422 19.232Z" fill="white"/>
</svg>
