<svg width="53" height="16" viewBox="0 0 53 16" fill="none" xmlns="http://www.w3.org/2000/svg">
<path d="M4.16 15.076V13.252H5.336V15.076H4.16ZM4.16 2.22V0.388H5.336V2.22H4.16ZM4.888 13.74C4.12533 13.74 3.43733 13.604 2.824 13.332C2.216 13.06 1.712 12.676 1.312 12.18C0.917333 11.684 0.658667 11.0973 0.536 10.42L1.68 10.22C1.856 10.956 2.23467 11.54 2.816 11.972C3.40267 12.3987 4.10933 12.612 4.936 12.612C5.77333 12.612 6.45067 12.4093 6.968 12.004C7.48533 11.5933 7.744 11.0573 7.744 10.396C7.744 9.90533 7.6 9.51333 7.312 9.22C7.024 8.92667 6.536 8.676 5.848 8.468L3.288 7.668C1.74133 7.18267 0.968 6.26533 0.968 4.916C0.968 4.28667 1.12267 3.73467 1.432 3.26C1.74667 2.78 2.18133 2.40667 2.736 2.14C3.296 1.87333 3.94933 1.74267 4.696 1.748C5.42667 1.748 6.08 1.88667 6.656 2.164C7.23733 2.436 7.71467 2.82267 8.088 3.324C8.46133 3.82533 8.70933 4.42 8.832 5.108L7.656 5.332C7.58133 4.84133 7.408 4.412 7.136 4.044C6.86933 3.676 6.52533 3.39067 6.104 3.188C5.68267 2.98 5.21333 2.87333 4.696 2.868C4.20533 2.868 3.768 2.95333 3.384 3.124C3 3.29467 2.696 3.532 2.472 3.836C2.25333 4.13467 2.144 4.47867 2.144 4.868C2.144 5.29467 2.296 5.65733 2.6 5.956C2.90933 6.24933 3.39733 6.49733 4.064 6.7L6.264 7.364C7.192 7.64133 7.86133 8.01467 8.272 8.484C8.68267 8.95333 8.888 9.58 8.888 10.364C8.888 11.0413 8.72267 11.6333 8.392 12.14C8.06133 12.6467 7.59467 13.0413 6.992 13.324C6.39467 13.6013 5.69333 13.74 4.888 13.74ZM15.6139 13.5V11.268H10.2219V10.148L14.0779 1.98H15.3979L11.5419 10.148H15.6139V6.788H16.7979V10.148H18.0539V11.268H16.7979V13.5H15.6139ZM25.2233 13.5V11.268H19.8313V10.148L23.6873 1.98H25.0073L21.1513 10.148H25.2233V6.788H26.4073V10.148H27.6632V11.268H26.4073V13.5H25.2233ZM29.5003 13.5V12.132H30.8683V13.5H29.5003ZM37.1308 1.748C37.8561 1.748 38.5121 1.924 39.0988 2.276C39.6908 2.62267 40.1601 3.09733 40.5068 3.7C40.8534 4.29733 41.0268 4.96933 41.0268 5.716V9.716C41.0268 10.484 40.8534 11.172 40.5068 11.78C40.1601 12.388 39.6854 12.868 39.0828 13.22C38.4854 13.5667 37.8054 13.74 37.0428 13.74C36.3868 13.74 35.7788 13.596 35.2188 13.308C34.6641 13.0147 34.2054 12.612 33.8428 12.1L34.7388 11.356C34.9841 11.7347 35.3094 12.0387 35.7148 12.268C36.1254 12.4973 36.5681 12.612 37.0428 12.612C37.5868 12.612 38.0668 12.484 38.4828 12.228C38.9041 11.9667 39.2348 11.6253 39.4748 11.204C39.7201 10.7773 39.8428 10.316 39.8428 9.82V7.308L40.1308 7.644C39.8001 8.172 39.3601 8.59867 38.8108 8.924C38.2668 9.24933 37.6694 9.412 37.0188 9.412C36.3094 9.412 35.6668 9.24133 35.0908 8.9C34.5201 8.55867 34.0668 8.1 33.7308 7.524C33.4001 6.948 33.2348 6.30533 33.2348 5.596C33.2348 4.88667 33.4108 4.24133 33.7628 3.66C34.1148 3.07333 34.5868 2.60933 35.1788 2.268C35.7708 1.92133 36.4214 1.748 37.1308 1.748ZM37.1308 2.884C36.6294 2.884 36.1734 3.00667 35.7628 3.252C35.3521 3.492 35.0241 3.81733 34.7788 4.228C34.5388 4.63867 34.4188 5.09467 34.4188 5.596C34.4188 6.09733 34.5388 6.55333 34.7788 6.964C35.0188 7.37467 35.3441 7.70267 35.7548 7.948C36.1654 8.188 36.6214 8.308 37.1228 8.308C37.6241 8.308 38.0801 8.188 38.4908 7.948C38.9068 7.70267 39.2348 7.37467 39.4748 6.964C39.7201 6.55333 39.8428 6.09733 39.8428 5.596C39.8428 5.1 39.7201 4.64667 39.4748 4.236C39.2348 3.82533 38.9094 3.49733 38.4988 3.252C38.0881 3.00667 37.6321 2.884 37.1308 2.884ZM47.0526 1.748C47.778 1.748 48.434 1.924 49.0206 2.276C49.6126 2.62267 50.082 3.09733 50.4286 3.7C50.7753 4.29733 50.9486 4.96933 50.9486 5.716V9.716C50.9486 10.484 50.7753 11.172 50.4286 11.78C50.082 12.388 49.6073 12.868 49.0046 13.22C48.4073 13.5667 47.7273 13.74 46.9646 13.74C46.3086 13.74 45.7006 13.596 45.1406 13.308C44.586 13.0147 44.1273 12.612 43.7646 12.1L44.6606 11.356C44.906 11.7347 45.2313 12.0387 45.6366 12.268C46.0473 12.4973 46.49 12.612 46.9646 12.612C47.5086 12.612 47.9886 12.484 48.4046 12.228C48.826 11.9667 49.1566 11.6253 49.3966 11.204C49.642 10.7773 49.7646 10.316 49.7646 9.82V7.308L50.0526 7.644C49.722 8.172 49.282 8.59867 48.7326 8.924C48.1886 9.24933 47.5913 9.412 46.9406 9.412C46.2313 9.412 45.5886 9.24133 45.0126 8.9C44.442 8.55867 43.9886 8.1 43.6526 7.524C43.322 6.948 43.1566 6.30533 43.1566 5.596C43.1566 4.88667 43.3326 4.24133 43.6846 3.66C44.0366 3.07333 44.5086 2.60933 45.1006 2.268C45.6926 1.92133 46.3433 1.748 47.0526 1.748ZM47.0526 2.884C46.5513 2.884 46.0953 3.00667 45.6846 3.252C45.274 3.492 44.946 3.81733 44.7006 4.228C44.4606 4.63867 44.3406 5.09467 44.3406 5.596C44.3406 6.09733 44.4606 6.55333 44.7006 6.964C44.9406 7.37467 45.266 7.70267 45.6766 7.948C46.0873 8.188 46.5433 8.308 47.0446 8.308C47.546 8.308 48.002 8.188 48.4126 7.948C48.8286 7.70267 49.1566 7.37467 49.3966 6.964C49.642 6.55333 49.7646 6.09733 49.7646 5.596C49.7646 5.1 49.642 4.64667 49.3966 4.236C49.1566 3.82533 48.8313 3.49733 48.4206 3.252C48.01 3.00667 47.554 2.884 47.0526 2.884Z" fill="#9397AD"/>
<path d="M0 8.316H52.0686V8.716H0V8.316Z" fill="#9397AD"/>
</svg>
