<svg width="228" height="56" viewBox="0 0 228 56" fill="none" xmlns="http://www.w3.org/2000/svg">
<path d="M9.9697 15.7197L5.68945 20L9.9697 24.2802L11.0302 23.2197L7.81045 20L11.0302 16.7802L9.9697 15.7197Z" fill="#33354D"/>
<path d="M47.8148 25V17.74L46.1888 18.73V17.332L47.8148 16.36H49.0928V25H47.8148Z" fill="#33354D"/>
<rect x="74" y="2" width="36" height="36" rx="4" fill="#EFF2FC"/>
<path d="M89.0785 24.994L89.0845 23.878L92.8465 20.506C93.1505 20.238 93.3565 19.982 93.4645 19.738C93.5765 19.494 93.6325 19.25 93.6325 19.006C93.6325 18.698 93.5645 18.422 93.4285 18.178C93.2925 17.93 93.1045 17.734 92.8645 17.59C92.6245 17.446 92.3485 17.374 92.0365 17.374C91.7165 17.374 91.4305 17.45 91.1785 17.602C90.9305 17.75 90.7365 17.948 90.5965 18.196C90.4565 18.444 90.3885 18.712 90.3925 19H89.1085C89.1085 18.44 89.2345 17.95 89.4865 17.53C89.7425 17.106 90.0925 16.776 90.5365 16.54C90.9805 16.3 91.4885 16.18 92.0605 16.18C92.6045 16.18 93.0925 16.304 93.5245 16.552C93.9565 16.796 94.2965 17.132 94.5445 17.56C94.7965 17.988 94.9225 18.476 94.9225 19.024C94.9225 19.42 94.8705 19.756 94.7665 20.032C94.6625 20.308 94.5065 20.564 94.2985 20.8C94.0905 21.036 93.8305 21.292 93.5185 21.568L90.6145 24.16L90.4765 23.8H94.9225V24.994H89.0785Z" fill="#33354D"/>
<g filter="url(#filter0_d_20005153_4064)">
<rect x="118" y="2" width="36" height="36" rx="4" fill="#6366F1"/>
</g>
<path d="M135.824 25.162C135.396 25.162 134.994 25.082 134.618 24.922C134.242 24.758 133.916 24.526 133.64 24.226C133.368 23.926 133.17 23.572 133.046 23.164L134.258 22.828C134.374 23.2 134.576 23.486 134.864 23.686C135.152 23.882 135.472 23.978 135.824 23.974C136.14 23.97 136.418 23.896 136.658 23.752C136.898 23.608 137.086 23.414 137.222 23.17C137.358 22.922 137.426 22.638 137.426 22.318C137.426 21.838 137.276 21.442 136.976 21.13C136.68 20.818 136.292 20.662 135.812 20.662C135.676 20.662 135.536 20.682 135.392 20.722C135.252 20.762 135.12 20.814 134.996 20.878L134.408 19.888L137.456 17.194L137.588 17.554H133.388V16.36H138.584V17.554L136.052 19.99L136.04 19.582C136.584 19.582 137.056 19.704 137.456 19.948C137.856 20.188 138.164 20.516 138.38 20.932C138.6 21.344 138.71 21.806 138.71 22.318C138.71 22.87 138.58 23.36 138.32 23.788C138.064 24.216 137.718 24.552 137.282 24.796C136.85 25.04 136.364 25.162 135.824 25.162Z" fill="white"/>
<path d="M180.885 25V23.494H176.985V22.306L179.793 16.36H181.227L178.419 22.306H180.885V19.966H182.157V22.306H183.015V23.494H182.157V25H180.885Z" fill="#33354D"/>
<path d="M218.03 24.2802L222.31 20L218.03 15.7197L216.97 16.7802L220.189 20L216.97 23.2197L218.03 24.2802Z" fill="#33354D"/>
<defs>
<filter id="filter0_d_20005153_4064" x="108" y="0" width="56" height="56" filterUnits="userSpaceOnUse" color-interpolation-filters="sRGB">
<feFlood flood-opacity="0" result="BackgroundImageFix"/>
<feColorMatrix in="SourceAlpha" type="matrix" values="0 0 0 0 0 0 0 0 0 0 0 0 0 0 0 0 0 0 127 0" result="hardAlpha"/>
<feMorphology radius="8" operator="erode" in="SourceAlpha" result="effect1_dropShadow_20005153_4064"/>
<feOffset dy="8"/>
<feGaussianBlur stdDeviation="9"/>
<feColorMatrix type="matrix" values="0 0 0 0 0.388235 0 0 0 0 0.4 0 0 0 0 0.945098 0 0 0 0.9 0"/>
<feBlend mode="normal" in2="BackgroundImageFix" result="effect1_dropShadow_20005153_4064"/>
<feBlend mode="normal" in="SourceGraphic" in2="effect1_dropShadow_20005153_4064" result="shape"/>
</filter>
</defs>
</svg>
