<svg width="78" height="14" viewBox="0 0 78 14" fill="none" xmlns="http://www.w3.org/2000/svg">
<path d="M12.8024 5.35438C12.7272 5.13388 12.5283 4.97813 12.2961 4.96004L8.97053 4.69579L7.53145 1.51021C7.43753 1.30079 7.22928 1.16663 7.00003 1.16663C6.77078 1.16663 6.56253 1.30079 6.46861 1.50963L5.02953 4.69579L1.70395 4.96004C1.47586 4.97813 1.27928 5.12804 1.2017 5.34329C1.12411 5.55854 1.17895 5.79946 1.34286 5.95929L3.80045 8.35504L2.93128 12.1187C2.87761 12.3515 2.97153 12.5935 3.16811 12.7295C3.26845 12.7983 3.38395 12.8333 3.50003 12.8333C3.61261 12.8333 3.72578 12.8006 3.82378 12.7353L7.00003 10.6178L10.1763 12.7353C10.3793 12.8706 10.6459 12.8654 10.8442 12.7213C11.0414 12.5772 11.1283 12.3246 11.0612 12.0901L9.99428 8.35679L12.6403 5.97563C12.8135 5.81929 12.8771 5.57546 12.8024 5.35438Z" fill="#FFBA08"/>
<path d="M28.8024 5.35438C28.7272 5.13388 28.5283 4.97813 28.2961 4.96004L24.9705 4.69579L23.5314 1.51021C23.4375 1.30079 23.2293 1.16663 23 1.16663C22.7708 1.16663 22.5625 1.30079 22.4686 1.50963L21.0295 4.69579L17.7039 4.96004C17.4759 4.97813 17.2793 5.12804 17.2017 5.34329C17.1241 5.55854 17.1789 5.79946 17.3429 5.95929L19.8004 8.35504L18.9313 12.1187C18.8776 12.3515 18.9715 12.5935 19.1681 12.7295C19.2684 12.7983 19.3839 12.8333 19.5 12.8333C19.6126 12.8333 19.7258 12.8006 19.8238 12.7353L23 10.6178L26.1763 12.7353C26.3793 12.8706 26.6459 12.8654 26.8442 12.7213C27.0414 12.5772 27.1283 12.3246 27.0612 12.0901L25.9943 8.35679L28.6403 5.97563C28.8135 5.81929 28.8771 5.57546 28.8024 5.35438Z" fill="#FFBA08"/>
<path d="M44.8024 5.35438C44.7272 5.13388 44.5283 4.97813 44.2961 4.96004L40.9705 4.69579L39.5314 1.51021C39.4375 1.30079 39.2293 1.16663 39 1.16663C38.7708 1.16663 38.5625 1.30079 38.4686 1.50963L37.0295 4.69579L33.7039 4.96004C33.4759 4.97813 33.2793 5.12804 33.2017 5.34329C33.1241 5.55854 33.1789 5.79946 33.3429 5.95929L35.8004 8.35504L34.9313 12.1187C34.8776 12.3515 34.9715 12.5935 35.1681 12.7295C35.2684 12.7983 35.3839 12.8333 35.5 12.8333C35.6126 12.8333 35.7258 12.8006 35.8238 12.7353L39 10.6178L42.1763 12.7353C42.3793 12.8706 42.6459 12.8654 42.8442 12.7213C43.0414 12.5772 43.1283 12.3246 43.0612 12.0901L41.9943 8.35679L44.6403 5.97563C44.8135 5.81929 44.8771 5.57546 44.8024 5.35438Z" fill="#FFBA08"/>
<path d="M60.8024 5.35438C60.7272 5.13388 60.5283 4.97813 60.2961 4.96004L56.9705 4.69579L55.5314 1.51021C55.4375 1.30079 55.2293 1.16663 55 1.16663C54.7708 1.16663 54.5625 1.30079 54.4686 1.50963L53.0295 4.69579L49.7039 4.96004C49.4759 4.97813 49.2793 5.12804 49.2017 5.34329C49.1241 5.55854 49.1789 5.79946 49.3429 5.95929L51.8004 8.35504L50.9313 12.1187C50.8776 12.3515 50.9715 12.5935 51.1681 12.7295C51.2684 12.7983 51.3839 12.8333 51.5 12.8333C51.6126 12.8333 51.7258 12.8006 51.8238 12.7353L55 10.6178L58.1763 12.7353C58.3793 12.8706 58.6459 12.8654 58.8442 12.7213C59.0414 12.5772 59.1283 12.3246 59.0612 12.0901L57.9943 8.35679L60.6403 5.97563C60.8135 5.81929 60.8771 5.57546 60.8024 5.35438Z" fill="#FFBA08"/>
<path d="M76.8024 5.35438C76.7272 5.13388 76.5283 4.97813 76.2961 4.96004L72.9705 4.69579L71.5314 1.51021C71.4375 1.30079 71.2293 1.16663 71 1.16663C70.7708 1.16663 70.5625 1.30079 70.4686 1.50963L69.0295 4.69579L65.7039 4.96004C65.4759 4.97813 65.2793 5.12804 65.2017 5.34329C65.1241 5.55854 65.1789 5.79946 65.3429 5.95929L67.8004 8.35504L66.9313 12.1187C66.8776 12.3515 66.9715 12.5935 67.1681 12.7295C67.2684 12.7983 67.3839 12.8333 67.5 12.8333C67.6126 12.8333 67.7258 12.8006 67.8238 12.7353L71 10.6178L74.1763 12.7353C74.3793 12.8706 74.6459 12.8654 74.8442 12.7213C75.0414 12.5772 75.1283 12.3246 75.0612 12.0901L73.9943 8.35679L76.6403 5.97563C76.8135 5.81929 76.8771 5.57546 76.8024 5.35438Z" fill="#FFBA08"/>
</svg>
